<svg width="16" height="16" viewBox="0 0 16 16" fill="none" xmlns="http://www.w3.org/2000/svg">
<path opacity="0.99" fill-rule="evenodd" clip-rule="evenodd" d="M11.825 4.03071C12.9633 4.90925 13.9324 6.19636 14.6283 7.80606C14.6803 7.92824 14.6803 8.07111 14.6283 8.18747C13.2364 11.4069 10.7584 13.3333 8.00065 13.3333H7.99415C5.24293 13.3333 2.76488 11.4069 1.37301 8.18747C1.32098 8.07111 1.32098 7.92824 1.37301 7.80606C2.76488 4.58602 5.24293 2.66667 7.99415 2.66667H8.00065C9.37951 2.66667 10.6868 3.14505 11.825 4.03071ZM5.39903 8C5.39903 9.42222 6.56325 10.5794 8.00065 10.5794C9.43155 10.5794 10.5958 9.42222 10.5958 8C10.5958 6.57131 9.43155 5.41414 8.00065 5.41414C6.56325 5.41414 5.39903 6.57131 5.39903 8Z" stroke="#2D2A2A" stroke-width="1.6"/>
</svg>
