<svg width="90" height="90" viewBox="0 0 90 90" fill="none" xmlns="http://www.w3.org/2000/svg">
<path d="M90 45C90 20.1472 69.8528 0 45 0C20.1472 0 0 20.1472 0 45C0 69.8528 20.1472 90 45 90C69.8528 90 90 69.8528 90 45Z" fill="#B52F61"/>
<path d="M68.9853 54.1411L51.303 21.5885C49.9685 19.3418 47.6114 18 44.9981 18C42.3849 18 40.0278 19.3418 38.6932 21.5885C38.6832 21.6057 38.6747 21.6229 38.6646 21.64L21.0412 54.0896C19.678 56.3837 19.6522 59.1387 20.9709 61.4585C22.2927 63.7797 24.674 65.1643 27.3446 65.1643H62.554C65.2246 65.1643 67.7037 63.7797 69.0254 61.4585C70.3442 59.1388 70.3185 56.3836 68.9853 54.1411ZM42.0655 32.9052C42.0655 31.2855 43.3785 29.9726 44.9981 29.9726C46.6179 29.9726 47.9308 31.2856 47.9308 32.9052V44.6358C47.9308 46.2553 46.6178 47.5684 44.9981 47.5684C43.3785 47.5684 42.0655 46.2552 42.0655 44.6358V32.9052V32.9052ZM44.9981 59.2991C42.5724 59.2991 40.5991 57.3259 40.5991 54.9001C40.5991 52.4744 42.5724 50.5011 44.9981 50.5011C47.4238 50.5011 49.3971 52.4744 49.3971 54.9001C49.3972 57.3258 47.4239 59.2991 44.9981 59.2991Z" fill="white"/>
</svg>
