<svg width="20" height="20" viewBox="0 0 20 20" fill="none" xmlns="http://www.w3.org/2000/svg">
<path d="M10.0003 16.2326C10.0003 16.2326 2.83887 12.2222 2.83887 7.35243C2.83901 6.49172 3.13725 5.65762 3.68288 4.99195C4.2285 4.32628 4.98784 3.87013 5.83178 3.70104C6.67572 3.53196 7.55217 3.66039 8.31212 4.06448C9.07208 4.46858 9.66862 5.12341 10.0003 5.91763L10.0003 5.91764C10.332 5.12341 10.9286 4.46858 11.6885 4.06449C12.4485 3.66039 13.3249 3.53196 14.1689 3.70104C15.0128 3.87013 15.7721 4.32628 16.3178 4.99195C16.8634 5.65762 17.1616 6.49172 17.1618 7.35243C17.1618 12.2222 10.0003 16.2326 10.0003 16.2326Z" stroke="white" stroke-width="2" stroke-linecap="round" stroke-linejoin="round"/>
</svg>
