<svg width="30" height="29" viewBox="0 0 30 29" fill="none" xmlns="http://www.w3.org/2000/svg">
<path d="M20.0215 12.4645H26.0215V6.46448" stroke="#F08F48" stroke-width="2" stroke-linecap="round" stroke-linejoin="round"/>
<path d="M6.22168 8.22183C7.24312 7.20038 8.45576 6.39013 9.79034 5.83733C11.1249 5.28452 12.5553 5 13.9999 5C15.4444 5 16.8748 5.28452 18.2094 5.83733C19.544 6.39013 20.7566 7.20038 21.778 8.22183L26.0207 12.4645" stroke="#F08F48" stroke-width="2" stroke-linecap="round" stroke-linejoin="round"/>
<path d="M9.97852 17.5355H3.97852V23.5355" stroke="#F08F48" stroke-width="2" stroke-linecap="round" stroke-linejoin="round"/>
<path d="M23.7775 21.7782C22.7561 22.7996 21.5434 23.6099 20.2088 24.1627C18.8743 24.7155 17.4439 25 15.9993 25C14.5548 25 13.1244 24.7155 11.7898 24.1627C10.4552 23.6099 9.2426 22.7996 8.22116 21.7782L3.97852 17.5355" stroke="#F08F48" stroke-width="2" stroke-linecap="round" stroke-linejoin="round"/>
</svg>
