<svg width="32" height="32" viewBox="0 0 32 32" fill="none" xmlns="http://www.w3.org/2000/svg">
<path d="M16 32C24.8366 32 32 24.8366 32 16C32 7.16344 24.8366 0 16 0C7.16344 0 0 7.16344 0 16C0 24.8366 7.16344 32 16 32Z" fill="#2C3137"/>
<path fill-rule="evenodd" clip-rule="evenodd" d="M16.0184 7.5791C13.5628 7.5791 11.5723 9.56975 11.5723 12.0253C11.5723 14.4808 13.5628 16.4716 16.0184 16.4716C18.474 16.4716 20.4646 14.4808 20.4646 12.0253C20.4646 9.56975 18.474 7.5791 16.0184 7.5791ZM16.0184 13.8633C15.0034 13.8633 14.1805 13.0404 14.1805 12.0253C14.1805 11.0103 15.0034 10.1874 16.0184 10.1874C17.0335 10.1874 17.8564 11.0103 17.8564 12.0253C17.8564 13.0404 17.0335 13.8633 16.0184 13.8633ZM17.5871 20.2447C19.3671 19.8821 20.4337 19.0392 20.4902 18.9939C21.011 18.5762 21.0947 17.8154 20.677 17.2945C20.2593 16.7736 19.4985 16.6899 18.9776 17.1076C18.9666 17.1165 17.8289 17.9892 15.957 17.9905C14.0853 17.9892 12.9235 17.1165 12.9125 17.1076C12.3916 16.6899 11.6308 16.7736 11.2131 17.2945C10.7954 17.8154 10.8791 18.5762 11.3999 18.9939C11.4571 19.0398 12.5678 19.9047 14.3977 20.2588L11.8474 22.924C11.3839 23.4047 11.3979 24.17 11.8785 24.6334C12.1131 24.8596 12.4155 24.9721 12.7176 24.9721C13.0343 24.9721 13.3507 24.8483 13.5879 24.6023L15.9571 22.0785L18.5656 24.6186C19.0382 25.0905 19.8035 25.0897 20.2752 24.6173C20.747 24.1448 20.7464 23.3793 20.2739 22.9076L17.5871 20.2447ZM15.9617 17.7549C15.9609 17.7549 15.9603 17.7549 15.9622 17.7549C15.964 17.7549 15.9634 17.7549 15.9626 17.7549C15.9615 17.755 15.9598 17.755 15.9622 17.7551C15.9645 17.755 15.9628 17.755 15.9617 17.7549Z" fill="#E0E7EF"/>
</svg>
