<svg width="158" height="15" viewBox="0 0 158 15" fill="none" xmlns="http://www.w3.org/2000/svg">
<path fill-rule="evenodd" clip-rule="evenodd" d="M30.4107 12.371C30.4107 12.371 30.1712 10.938 30.0909 10.5789H26.6271C26.5315 10.86 26.053 12.371 26.053 12.371H23.2271L27.2343 3.00529C27.3338 2.72692 27.5272 2.49013 27.7827 2.334C28.0376 2.17787 28.3397 2.11173 28.6387 2.14649H30.73L32.9168 12.371H30.4107ZM29.0217 5.78288L28.8299 4.90844C28.7025 5.29883 28.4623 5.90779 28.4788 5.89218C28.4788 5.89218 27.6167 8.15507 27.4096 8.74782H29.6442C29.5339 8.23134 29.0217 5.78288 29.0217 5.78288ZM23.2111 4.50367C22.5801 4.22452 21.8921 4.09097 21.2001 4.11331C20.1303 4.11331 19.6512 4.55051 19.6352 4.98712C19.6352 5.47119 20.2106 5.78288 21.1671 6.25131C22.716 6.97198 23.4342 7.8584 23.4182 9.02828C23.4023 11.135 21.5666 12.5079 18.7247 12.5079C17.6979 12.5112 16.6796 12.3263 15.7223 11.9626L16.09 9.66847L16.4576 9.84023C17.2414 10.2178 18.1065 10.4051 18.9796 10.3861C19.7621 10.3861 20.5917 10.0738 20.6082 9.38741C20.6082 8.93519 20.2571 8.60669 19.2032 8.10823C18.1818 7.62418 16.8246 6.81283 16.8405 5.34567C16.8565 3.36381 18.7241 1.97473 21.3901 1.97473C22.2182 1.96988 23.0403 2.11232 23.8165 2.39512L23.4489 4.61117L23.2111 4.50367ZM11.3351 12.371L13.0269 2.14649H15.7229L14.0318 12.371H11.3358H11.3351ZM4.84016 12.371L2.43457 3.50134C2.35247 3.4545 2.26607 3.41186 2.18213 3.36682H3.79239L4.38736 3.7794L5.47863 5.41233L5.94186 6.66629L6.14958 7.70225L6.43695 9.10695L9.08641 2.14649H11.9442L7.69796 12.371H4.84078H4.84016Z" fill="#1470B0"/>
<path fill-rule="evenodd" clip-rule="evenodd" d="M3.61513 4.69284C3.29203 4.44385 2.94431 4.22717 2.57716 4.04605L2.42336 3.47912C1.66014 3.05021 0.846307 2.71422 0 2.4786V2.16211H4.14453C4.3925 2.1627 4.63282 2.24642 4.82552 2.39936C5.01822 2.55231 5.1518 2.76528 5.20394 3.00288L6.10099 7.47945C5.43764 6.42049 4.59734 5.47852 3.61513 4.69284Z" fill="#FFB927"/>
<path d="M53.284 14.4833C57.261 14.4833 60.4845 11.2412 60.4845 7.24167C60.4845 3.2422 57.261 0 53.284 0C49.307 0 46.0835 3.2422 46.0835 7.24167C46.0835 11.2412 49.307 14.4833 53.284 14.4833Z" fill="#E70025"/>
<path d="M61.9246 14.4833C65.9016 14.4833 69.1252 11.2412 69.1252 7.24167C69.1252 3.2422 65.9016 0 61.9246 0C57.9477 0 54.7241 3.2422 54.7241 7.24167C54.7241 11.2412 57.9477 14.4833 61.9246 14.4833Z" fill="#F59E2D"/>
<path fill-rule="evenodd" clip-rule="evenodd" d="M54.7241 7.24149C54.7241 6.11869 54.9845 5.0113 55.4845 4.00735C55.9845 3.0034 56.7103 2.13052 57.6043 1.45801C58.4983 2.13049 59.2242 3.00337 59.7242 4.00732C60.2242 5.01128 60.4845 6.11863 60.4845 7.24149C60.4845 8.36436 60.2242 9.47169 59.7242 10.4757C59.2242 11.4796 58.4983 12.3525 57.6043 13.025C56.7103 12.3525 55.9845 11.4796 55.4845 10.4756C54.9845 9.47169 54.7241 8.3643 54.7241 7.24149Z" fill="#FC5D1D"/>
<path d="M89.492 14.4833C93.469 14.4833 96.6925 11.2412 96.6925 7.24167C96.6925 3.2422 93.469 0 89.492 0C85.515 0 82.2915 3.2422 82.2915 7.24167C82.2915 11.2412 85.515 14.4833 89.492 14.4833Z" fill="#D2181C"/>
<path d="M98.1327 14.4833C102.11 14.4833 105.333 11.2412 105.333 7.24167C105.333 3.2422 102.11 0 98.1327 0C94.1557 0 90.9321 3.2422 90.9321 7.24167C90.9321 11.2412 94.1557 14.4833 98.1327 14.4833Z" fill="#179ADC"/>
<path fill-rule="evenodd" clip-rule="evenodd" d="M90.9321 7.24149C90.9321 6.11869 91.1925 5.0113 91.6925 4.00735C92.1925 3.0034 92.9183 2.13052 93.8123 1.45801C94.7064 2.13049 95.4322 3.00337 95.9322 4.00732C96.4322 5.01128 96.6925 6.11863 96.6925 7.24149C96.6925 8.36436 96.4322 9.47169 95.9322 10.4757C95.4322 11.4796 94.7064 12.3525 93.8123 13.025C92.9183 12.3525 92.1925 11.4796 91.6925 10.4756C91.1925 9.47169 90.9321 8.3643 90.9321 7.24149Z" fill="#6C6BBB"/>
<path fill-rule="evenodd" clip-rule="evenodd" d="M128.405 12.5079V6.24995H128.138L126.222 12.5079H123.948H123.941L122.032 6.24995H121.767V12.5079H118.5V1.97467H121.772C122.179 1.9728 122.577 2.10671 122.905 2.35663C123.234 2.60654 123.476 2.95921 123.597 3.36258L124.941 8.23082H125.224L126.571 3.36258C126.692 2.958 126.936 2.60452 127.266 2.35452C127.597 2.10453 127.996 1.97133 128.405 1.97467H131.677V12.5079H128.405Z" fill="#52B461"/>
<path fill-rule="evenodd" clip-rule="evenodd" d="M140.918 12.5079V6.30504H140.66L138.429 11.5017C138.298 11.8019 138.086 12.0566 137.818 12.235C137.55 12.4135 137.239 12.5083 136.92 12.5079H134.061V1.97461H137.354V8.17748H137.624L139.883 2.97279C139.889 2.95916 139.894 2.94615 139.9 2.93314V2.92942C140.037 2.64242 140.249 2.40082 140.511 2.23204C140.774 2.06328 141.077 1.97409 141.386 1.97461H144.245V12.5079H140.918Z" fill="#52B461"/>
<path fill-rule="evenodd" clip-rule="evenodd" d="M153.899 9.41501H149.977V12.5081H146.647V6.93164H157.711C157.381 7.68681 156.843 8.32482 156.166 8.76641C155.488 9.20794 154.7 9.43348 153.899 9.41501Z" fill="#52B461"/>
<path fill-rule="evenodd" clip-rule="evenodd" d="M157.92 5.69225H151.592C148.843 5.69225 146.558 3.97469 146.077 1.97461H154.195C156.297 1.97461 158 3.48272 158 5.09433C158 5.29651 157.973 5.49769 157.92 5.69225Z" fill="url(#paint0_linear_92_162)"/>
<defs>
<linearGradient id="paint0_linear_92_162" x1="10697.6" y1="358.866" x2="10460.2" y2="358.866" gradientUnits="userSpaceOnUse">
<stop stop-color="#198ECA"/>
<stop offset="1" stop-color="#1DB5E4"/>
</linearGradient>
</defs>
</svg>
