<svg width="18" height="18" viewBox="0 0 18 18" fill="none" xmlns="http://www.w3.org/2000/svg">
<path fill-rule="evenodd" clip-rule="evenodd" d="M8.39312 0.0249363C8.36728 0.0509363 8.1392 0.110536 7.88632 0.157256C6.69432 0.377656 5.50528 1.26462 4.94464 2.35166C4.4572 3.29694 4.30984 3.89606 4.26112 5.13166L4.21768 6.23166H5.22888H6.24008L6.24072 5.69166C6.24256 3.98262 6.82368 2.76582 7.85776 2.30534C8.46288 2.03582 9.61536 2.03494 10.2182 2.3035C11.257 2.7663 11.8401 3.97222 11.8401 5.65822V6.23166H12.8503H13.8606L13.817 5.13166C13.7679 3.89342 13.6482 3.36686 13.2127 2.47526C12.661 1.3455 11.4635 0.408696 10.2401 0.149816C9.72776 0.0413363 8.46176 -0.0442637 8.39312 0.0249363ZM3.49992 7.0647C2.88648 7.2859 2.46248 7.72446 2.2144 8.3943C2.09584 8.71454 2.08008 9.1899 2.08008 12.4513C2.08008 15.9439 2.0888 16.1689 2.23928 16.5713C2.44672 17.1255 2.9552 17.6252 3.52312 17.8328C3.93976 17.9851 4.16888 17.9917 9.04008 17.9917C13.8358 17.9917 14.1458 17.9831 14.5386 17.8395C15.2358 17.5847 15.5931 17.2274 15.8479 16.5302C15.9892 16.1437 16.0001 15.8517 16.0001 12.4478C16.0001 8.36086 15.9923 8.29182 15.4642 7.67478C15.3095 7.49406 15.0338 7.26638 14.8515 7.16894L14.5201 6.99166L9.16008 6.97406C4.8212 6.95974 3.74288 6.97702 3.49992 7.0647ZM9.8252 10.6301C10.5619 11.1637 10.6535 12.0742 10.0329 12.6949L9.76008 12.9677V13.8289C9.76008 14.5866 9.7396 14.7161 9.5896 14.9069C9.34576 15.2169 9.08352 15.2982 8.80048 15.1518C8.38296 14.936 8.32008 14.7601 8.32008 13.8087C8.32008 12.9478 8.31832 12.9398 8.08576 12.7441C7.95504 12.6341 7.79672 12.3799 7.72784 12.1693C7.42376 11.2397 8.0716 10.3934 9.08808 10.3921C9.41432 10.3917 9.562 10.4394 9.8252 10.6301Z" fill="#CBD5E1"/>
</svg>
