<svg width="32" height="32" viewBox="0 0 32 32" fill="none" xmlns="http://www.w3.org/2000/svg">
<path d="M16 32C24.8366 32 32 24.8366 32 16C32 7.16344 24.8366 0 16 0C7.16344 0 0 7.16344 0 16C0 24.8366 7.16344 32 16 32Z" fill="#2C3137"/>
<path fill-rule="evenodd" clip-rule="evenodd" d="M11.6582 17.5718L19.6253 12.545C20.0231 12.3042 20.3882 12.4337 20.0885 12.6999L13.2662 18.8546L13.0007 21.688L11.6582 17.5718ZM21.9196 10.0887L7.74681 15.5555C6.77956 15.9431 6.78538 16.4828 7.57081 16.7235L11.1053 17.8267L12.458 21.9728C12.6223 22.4266 12.5416 22.607 13.018 22.607C13.3859 22.607 13.5488 22.439 13.7539 22.239C13.8841 22.1117 14.6572 21.3597 15.5212 20.5198L19.1974 23.2368C19.8745 23.6099 20.3625 23.4164 20.5312 22.6084L22.945 11.2349C23.1915 10.2444 22.5668 9.79492 21.9196 10.0887Z" fill="#E0E7EF"/>
</svg>
