<svg width="32" height="32" viewBox="0 0 32 32" fill="none" xmlns="http://www.w3.org/2000/svg">
<circle cx="16" cy="16" r="16" fill="#2C3137"/>
<path fill-rule="evenodd" clip-rule="evenodd" d="M24.0347 11.6246C24.1518 11.2341 24.0347 10.9473 23.4775 10.9473H21.635C21.1665 10.9473 20.9505 11.1951 20.8334 11.4684C20.8334 11.4684 19.8964 13.7523 18.569 15.2358C18.1396 15.6652 17.9444 15.8019 17.7101 15.8019C17.593 15.8019 17.4235 15.6652 17.4235 15.2748V11.6246C17.4235 11.1561 17.2875 10.9473 16.8971 10.9473H14.0016C13.7089 10.9473 13.5328 11.1647 13.5328 11.3708C13.5328 11.8149 14.1965 11.9173 14.2649 13.1666V15.88C14.2649 16.4749 14.1574 16.5827 13.9232 16.5827C13.2986 16.5827 11.7792 14.2886 10.878 11.6636C10.7014 11.1534 10.5243 10.9473 10.0534 10.9473H8.21083C7.68439 10.9473 7.5791 11.1951 7.5791 11.4684C7.5791 11.9564 8.20376 14.3769 10.4876 17.5782C12.0102 19.7645 14.1554 20.9496 16.1074 20.9496C17.2786 20.9496 17.4235 20.6864 17.4235 20.233V18.5806C17.4235 18.0542 17.5345 17.9491 17.9053 17.9491C18.1786 17.9491 18.6471 18.0858 19.7403 19.1399C20.9895 20.3891 21.1955 20.9496 21.8982 20.9496H23.7408C24.2672 20.9496 24.5304 20.6864 24.3786 20.1669C24.2124 19.6492 23.6159 18.8981 22.8245 18.0077C22.395 17.5001 21.7508 16.9536 21.5556 16.6803C21.2823 16.3289 21.3604 16.1727 21.5556 15.8604C21.5556 15.8604 23.8005 12.6982 24.0347 11.6246Z" fill="#E0E7EF"/>
</svg>
