<svg width="23" height="27" viewBox="0 0 23 27" fill="none" xmlns="http://www.w3.org/2000/svg">
<path fill-rule="evenodd" clip-rule="evenodd" d="M11.1883 0.0477825C11.0115 0.116712 0.419803 6.21912 0.301198 6.32045C0.0326327 6.54978 0.021563 6.62472 0.00313148 8.33207C-0.0163361 10.1422 0.0562991 11.9675 0.183847 12.8724C0.76024 16.962 2.57301 20.5647 5.44211 23.3226C7.09134 24.908 8.92053 26.0861 10.9424 26.8652C11.479 27.072 11.6181 27.0573 12.4551 26.7057C14.3508 25.9095 16.0612 24.7726 17.5806 23.2989C19.7419 21.2027 21.3199 18.6135 22.1887 15.7379C22.8253 13.6305 23.0341 11.7009 22.9956 8.28061C22.977 6.62932 22.965 6.55099 22.6973 6.31929C22.5665 6.20613 12.0732 0.162102 11.8418 0.0666774C11.645 -0.0144966 11.3686 -0.0224663 11.1883 0.0477825Z" fill="#94A3B8"/>
</svg>
