<svg width="18" height="24" viewBox="0 0 18 24" fill="none" xmlns="http://www.w3.org/2000/svg">
<path fill-rule="evenodd" clip-rule="evenodd" d="M7.39807 0.0529963C3.2638 0.331556 0.248708 1.61555 0.248708 3.09759C0.248708 4.88549 4.57531 6.31123 9.59365 6.17704C14.7915 6.03802 18.4856 4.38665 17.6308 2.5842C16.829 0.893649 12.1392 -0.266477 7.39807 0.0529963ZM0.128127 4.41569C0.0215542 4.66793 0.0208516 4.67938 0.00750249 6.41952C-0.00742742 8.36643 0.000564527 8.44042 0.28555 8.9891C0.684881 9.75792 1.74956 10.547 3.12149 11.0908C5.86257 12.1775 9.86427 12.3942 13.1066 11.6315C15.8095 10.9956 17.5594 9.83862 17.9354 8.43864C17.9967 8.21038 18.0049 7.92863 17.9937 6.44457C17.981 4.74361 17.9791 4.71189 17.875 4.43572C17.7758 4.17237 17.7668 4.16228 17.7283 4.27151C17.5727 4.71269 17.3499 5.00617 16.9275 5.32639C14.6572 7.04744 8.61231 7.64322 4.12667 6.588C2.47559 6.19961 1.21156 5.59618 0.635086 4.92124C0.471998 4.73028 0.371046 4.54913 0.27488 4.27493C0.237643 4.1688 0.22886 4.17725 0.128127 4.41569ZM0.198605 10.1313C0.0209834 10.4983 -0.00106034 10.7539 3.74492e-05 12.4326C0.000696122 13.3794 0.0200611 14.141 0.0466276 14.2644C0.450262 16.1369 3.47928 17.6046 7.61284 17.9306C8.4505 17.9966 10.4506 17.9552 11.2184 17.8559C15.0071 17.3659 17.5825 15.9929 17.9551 14.2644C18.0126 13.9974 18.016 10.8871 17.959 10.6234C17.9361 10.5176 17.8775 10.3315 17.8286 10.2098L17.7399 9.98852L17.5283 10.2849C16.6173 11.5607 14.27 12.5797 11.394 12.9479C6.8169 13.5338 1.91414 12.3332 0.463348 10.271L0.266449 9.99111L0.198605 10.1313ZM0.179504 16.2393C0.00851246 16.6456 -0.00668098 16.8593 0.00912716 18.6341C0.0229154 20.1857 0.0319173 20.3596 0.10806 20.5516C0.780872 22.2478 3.27487 23.4759 6.937 23.9145C7.88896 24.0285 10.1127 24.0285 11.0647 23.9145C14.3436 23.5218 16.8322 22.4297 17.6585 21.0207C17.9842 20.4655 17.9757 20.5257 17.9926 18.6341C18.0084 16.8593 17.9932 16.6456 17.8222 16.2393L17.7315 16.0238L17.6585 16.1394C16.6635 17.715 13.8485 18.8386 10.2523 19.0955C7.24227 19.3105 3.97249 18.7222 2.02177 17.6147C1.22807 17.164 0.700997 16.7005 0.343162 16.1385L0.270181 16.0238L0.179504 16.2393Z" fill="#94A3B8"/>
</svg>
