<svg width="32" height="32" viewBox="0 0 32 32" fill="none" xmlns="http://www.w3.org/2000/svg">
<circle cx="16" cy="16" r="16" fill="#2C3137"/>
<path d="M25.2636 10.2154C24.5747 10.5197 23.8406 10.7214 23.0752 10.8193C23.8626 10.346 24.4635 9.60205 24.746 8.7054C24.0119 9.14615 23.2014 9.45747 22.3376 9.6312C21.6406 8.8838 20.6471 8.4209 19.5633 8.4209C17.4606 8.4209 15.7677 10.1396 15.7677 12.2465C15.7677 12.5497 15.7932 12.8412 15.8557 13.1187C12.6981 12.9636 9.90415 11.4397 8.0272 9.11816C7.69952 9.69066 7.5073 10.346 7.5073 11.0514C7.5073 12.3759 8.18467 13.5501 9.19436 14.2299C8.58415 14.2182 7.98552 14.0398 7.47836 13.7588C7.47836 13.7705 7.47836 13.7856 7.47836 13.8008C7.47836 15.6594 8.79488 17.2031 10.5213 17.5588C10.2121 17.6439 9.8752 17.6847 9.52552 17.6847C9.28236 17.6847 9.03688 17.6707 8.80646 17.6194C9.29857 19.134 10.695 20.2476 12.3554 20.2837C11.0632 21.3016 9.42246 21.9149 7.64625 21.9149C7.33478 21.9149 7.03604 21.9009 6.7373 21.8625C8.41973 22.955 10.4136 23.5788 12.5638 23.5788C19.5529 23.5788 23.3739 17.7488 23.3739 12.6954C23.3739 12.5264 23.3681 12.3631 23.36 12.201C24.1138 11.6624 24.7472 10.9896 25.2636 10.2154Z" fill="#E0E7EF"/>
</svg>
