<svg width="90" height="90" viewBox="0 0 90 90" fill="none" xmlns="http://www.w3.org/2000/svg">
<rect width="90" height="90" rx="45" fill="#B52F61"/>
<path d="M64.4408 38.0287L69.7138 32.7556C69.9313 32.5386 70.0335 32.2315 69.99 31.9275C69.9469 31.6234 69.7626 31.3572 69.4933 31.2091L63.1541 27.7282C62.6814 27.4688 62.0879 27.6416 61.8281 28.1143C61.5687 28.5873 61.7411 29.1809 62.2141 29.4403L67.4128 32.2948L62.8874 36.8198L46.6112 27.8823L51.1362 23.3574L55.7104 25.8693C56.1831 26.1287 56.777 25.9563 57.0364 25.4833C57.2962 25.0106 57.1234 24.4167 56.6504 24.1573L51.4338 21.2925C51.0531 21.0834 50.5801 21.1509 50.2734 21.458L44.9999 26.7315L39.7265 21.458C39.4194 21.1509 38.9464 21.0838 38.5661 21.2925L20.5065 31.2091C20.2372 31.3572 20.0529 31.623 20.0098 31.9275C19.9663 32.2315 20.0686 32.5386 20.286 32.7556L25.5591 38.0287L20.286 43.3014C20.0686 43.5188 19.9663 43.8255 20.0098 44.1299C20.0529 44.4339 20.2372 44.7002 20.5065 44.8478L25.9638 47.8447V57.8613C25.9638 58.218 26.158 58.546 26.4704 58.7177L44.5299 68.634C44.6764 68.7145 44.8382 68.7545 44.9999 68.7545C45.1617 68.7545 45.3234 68.7145 45.4699 68.634L63.5294 58.7177C63.8419 58.546 64.036 58.218 64.036 57.8613V47.8447L69.4933 44.8482C69.7626 44.7002 69.9469 44.4339 69.99 44.1299C70.0335 43.8259 69.9313 43.5188 69.7138 43.3017L64.4408 38.0287ZM44.9999 46.8307L28.9694 38.0283L44.9999 29.2255L61.0304 38.0283L44.9999 46.8307ZM38.864 23.3574L43.3886 27.8823L27.1124 36.8198L22.5874 32.2948L38.864 23.3574ZM27.1132 39.2372L43.3894 48.1746L38.864 52.7L22.5874 43.7626L27.1132 39.2372ZM62.0829 57.2837L45.9765 66.1277V56.1451C45.9765 55.6057 45.5393 55.1685 44.9999 55.1685C44.4605 55.1685 44.0234 55.6057 44.0234 56.1451V66.1277L27.9169 57.2837V48.9174L38.5661 54.7649C38.7137 54.8458 38.8754 54.8854 39.0356 54.8854C39.2886 54.8854 39.5388 54.787 39.7265 54.5993L44.9999 49.3259L50.2734 54.5993C50.461 54.7874 50.7113 54.8854 50.9642 54.8854C51.1244 54.8854 51.2862 54.8458 51.4338 54.7649L62.0829 48.9174V57.2837ZM51.1362 52.7L46.6109 48.1742L62.887 39.2372L67.4128 43.7622L51.1362 52.7Z" fill="white"/>
<path d="M59.5312 27.8297C59.788 27.8297 60.039 27.7252 60.2217 27.5432C60.4033 27.3616 60.5078 27.1099 60.5078 26.8531C60.5078 26.596 60.4033 26.3443 60.2217 26.1627C60.0401 25.9807 59.788 25.8766 59.5312 25.8766C59.2734 25.8766 59.0224 25.9807 58.8408 26.1627C58.6581 26.3443 58.5547 26.596 58.5547 26.8531C58.5547 27.1099 58.6581 27.3616 58.8408 27.5432C59.0224 27.7252 59.2745 27.8297 59.5312 27.8297Z" fill="white"/>
<path d="M45 51.9263C44.7433 51.9263 44.4911 52.0304 44.3095 52.2124C44.128 52.3947 44.0234 52.6457 44.0234 52.9028C44.0234 53.1603 44.128 53.4113 44.3095 53.5941C44.4911 53.7756 44.7433 53.8794 45 53.8794C45.2567 53.8794 45.5089 53.7756 45.6905 53.5941C45.872 53.4113 45.9766 53.1603 45.9766 52.9028C45.9766 52.6457 45.872 52.3947 45.6905 52.2124C45.5089 52.0304 45.2567 51.9263 45 51.9263Z" fill="white"/>
</svg>
