<svg width="90" height="90" viewBox="0 0 90 90" fill="none" xmlns="http://www.w3.org/2000/svg">
<path d="M45 44.8237C42.5063 44.8237 40.4888 46.7662 40.4888 49.1587C40.4888 50.76 41.4 52.14 42.7425 52.8937V57.8287C42.7425 59.025 43.7588 60 45 60C46.2413 60 47.2575 59.025 47.2575 57.8325V52.8975C48.6 52.1437 49.515 50.7637 49.515 49.1625C49.5113 46.7662 47.4938 44.8237 45 44.8237Z" fill="#B52F61"/>
<path d="M45 0C20.1488 0 0 20.1488 0 45C0 69.8512 20.1488 90 45 90C69.8512 90 90 69.8512 90 45C90 20.1488 69.8512 0 45 0ZM45 18.75C53.9737 18.75 60 24.7763 60 33.75H55.3125C55.3125 28.0537 50.6963 23.4375 45 23.4375C39.3037 23.4375 34.6875 28.0537 34.6875 33.75H30C30 24.7763 36.0263 18.75 45 18.75ZM63.75 61.875C63.75 64.98 61.23 67.5 58.125 67.5H31.875C28.77 67.5 26.25 64.98 26.25 61.875V43.125C26.25 40.02 28.77 37.5 31.875 37.5H58.125C61.23 37.5 63.75 40.02 63.75 43.125V61.875Z" fill="#B52F61"/>
</svg>
