<svg width="347" height="300" viewBox="0 0 347 300" fill="none" xmlns="http://www.w3.org/2000/svg">
<path d="M0 6.99999C0 3.134 3.13401 0 7 0H340C343.866 0 347 3.13401 347 7V300H0V6.99999Z" fill="#F0F4F9"/>
<path fill-rule="evenodd" clip-rule="evenodd" d="M284.492 59.428L287.707 62.3917C289.476 64.0214 292.19 66.8761 293.739 68.7348L296.556 72.1142L305.252 71.0109C310.035 70.4045 314.128 69.9878 314.349 70.0853C314.866 70.3146 324.225 94.5934 323.996 95.113C323.901 95.3286 320.596 97.7808 316.651 100.562L309.478 105.618L309.684 109.803C309.796 112.104 309.705 116.048 309.48 118.566L309.072 123.145L323.843 134.39L312.855 159.3L294.613 155.924L291.655 159.149C290.028 160.923 287.179 163.646 285.324 165.2L281.952 168.025L283.048 176.743C283.65 181.537 284.063 185.641 283.966 185.861C283.737 186.38 259.514 195.776 258.995 195.546C258.78 195.451 256.337 192.139 253.565 188.187L248.525 181L244.135 181.188C241.72 181.291 237.797 181.202 235.416 180.99L231.086 180.605L220.013 194.946L195.188 183.951L198.324 166.061L195.128 163.177C193.371 161.59 190.642 158.753 189.065 156.87L186.197 153.448L177.546 154.545C172.789 155.149 168.715 155.563 168.495 155.465C167.977 155.236 158.619 130.957 158.848 130.438C158.943 130.222 162.248 127.77 166.192 124.989L173.363 119.933L173.178 115.532C173.077 113.111 173.168 109.178 173.38 106.791L173.767 102.451L159.468 91.3574L170.448 66.4642L188.261 69.5927L191.204 66.3846C192.823 64.6202 195.664 61.905 197.519 60.3508L200.892 57.5251L199.796 48.8077C199.194 44.0134 198.78 39.9098 198.878 39.6891C199.107 39.17 223.33 29.7747 223.848 30.0041C224.063 30.0994 226.495 33.3946 229.253 37.3264L234.265 44.4752L238.722 44.2965C241.173 44.1984 245.115 44.3108 247.48 44.5471L251.782 44.9758L263.027 30.1364L287.869 41.1384L284.492 59.428ZM249.671 75.64C242.093 74.0033 234.889 74.5942 227.691 77.4439C221.104 80.0512 215.949 83.8067 211.54 89.21C208.755 92.6239 204.56 102.133 203.915 106.495C201.762 121.076 207.763 135.44 219.521 143.851C241.372 159.483 272.802 147.284 278.471 120.971C280.151 113.175 279.563 106.396 276.548 98.8074C271.742 86.7104 261.985 78.3005 249.671 75.64ZM255.245 94.676C258.671 97.3112 260.859 100.292 262.522 104.59C267.117 116.465 261.435 129.345 249.587 133.913C237.678 138.505 224.881 132.843 220.332 120.972C215.759 109.037 221.402 96.2285 233.262 91.6244C240.891 88.663 248.867 89.7705 255.245 94.676ZM144.423 114.161L154.403 122.304L150.284 131.162C147.392 137.381 146.315 140.087 146.671 140.245C147.407 140.571 152.141 152.289 152.572 154.851L152.937 157.023L161.721 160.564C166.552 162.512 170.534 164.323 170.571 164.588C170.766 166.004 166.533 190.909 166.067 191.087C165.764 191.203 161.641 191.659 156.906 192.1C152.17 192.54 148.006 193.148 147.653 193.449C147.299 193.751 145.827 195.721 144.382 197.827C142.937 199.933 140.467 202.943 138.894 204.516L136.034 207.377L138.383 226.134L112.966 236L102.116 220.542L98.0904 220.353C95.876 220.248 92.1369 219.729 89.781 219.199C87.425 218.669 85.0424 218.137 84.4868 218.015C83.8005 217.866 81.3559 219.377 76.8682 222.728C73.2338 225.442 69.9281 227.85 69.5221 228.08C68.9219 228.419 66.8372 226.923 58.3731 220.076L47.9621 211.655L51.9592 203.076C54.7659 197.053 55.8048 194.431 55.4475 194.273C54.7153 193.949 49.9799 182.24 49.5436 179.674L49.1751 177.509L32 170.28L34.0701 157.042C35.2088 149.761 36.29 143.741 36.4731 143.664C36.6557 143.587 40.6364 143.096 45.3191 142.573C50.0014 142.05 54.12 141.374 54.4708 141.071C54.8215 140.768 56.2914 138.797 57.7367 136.691C59.182 134.585 61.6515 131.575 63.2244 130.002L66.0844 127.141L63.7354 108.384L89.1524 98.518L100.003 113.976L104.037 114.16C106.256 114.261 110.102 114.82 112.584 115.401C115.066 115.983 117.477 116.446 117.941 116.429C118.405 116.413 121.999 113.973 125.926 111.007C129.854 108.041 133.377 105.705 133.755 105.816C134.134 105.927 138.934 109.682 144.423 114.161ZM105.791 144.978C101.403 144.047 97.2702 144.411 92.9128 146.114C75.6508 152.86 73.2187 176.029 88.6919 186.323C94.7686 190.366 102.195 191.115 109.211 188.391C121.083 183.784 126.757 170.935 122.157 159.078C119.278 151.658 113.399 146.592 105.791 144.978ZM107.066 162.733C108.566 164.635 108.996 168.103 108.01 170.338C107.663 171.125 106.595 172.408 105.637 173.189C103.679 174.786 100.284 175.248 97.9846 174.229C97.1996 173.882 95.92 172.812 95.1413 171.852C93.5492 169.889 93.0909 166.486 94.108 164.18C95.1251 161.875 97.9451 159.924 100.465 159.782C103.264 159.626 105.352 160.559 107.066 162.733Z" fill="white" fill-opacity="0.5"/>
<path d="M50 252.216V224.295H153V252.216C153 256.869 139.804 269.123 101.414 269.123C63.025 269.123 50 257.024 50 252.216Z" fill="#4D5FFF"/>
<ellipse cx="101.5" cy="224.761" rx="51.5" ry="18.5229" fill="#6776FD"/>
<path d="M54 220.819V195.321H149V220.819C149 225.069 136.829 236.26 101.421 236.26C66.0133 236.26 54 225.211 54 220.819Z" fill="#3448FC"/>
<rect x="63" y="166.209" width="4" height="10.917" fill="#D9D9D9"/>
<path d="M50 213.097V185.176H153V213.097C153 217.75 139.804 230.004 101.414 230.004C63.025 230.004 50 217.905 50 213.097Z" fill="#4D5FFF"/>
<ellipse cx="101.5" cy="185.642" rx="51.5" ry="18.5229" fill="#6776FD"/>
<path d="M54 181.7V156.202H149V181.7C149 185.95 136.829 197.141 101.421 197.141C66.0133 197.141 54 186.092 54 181.7Z" fill="#3448FC"/>
<path d="M50 173.978V146.057H153V173.978C153 178.631 139.804 190.885 101.414 190.885C63.025 190.885 50 178.786 50 173.978Z" fill="#4D5FFF"/>
<ellipse cx="101.5" cy="146.523" rx="51.5" ry="18.5229" fill="#7885FE"/>
<path d="M58 251.94V243.085C58 242.099 59.1139 241.438 60.1055 241.836C60.6492 242.055 61 242.544 61 243.085V251.94C61 253.059 59.602 253.702 58.6114 253.04C58.227 252.783 58 252.374 58 251.94Z" fill="white"/>
<path d="M65 254.775V246.668C65 245.697 66.0839 245.036 67.0711 245.406C67.6332 245.617 68 246.115 68 246.668V254.775C68 255.873 66.6466 256.522 65.6512 255.9C65.2436 255.646 65 255.225 65 254.775Z" fill="white"/>
<path d="M72 256.912V249.025C72 248.039 73.1139 247.379 74.1055 247.777C74.6492 247.995 75 248.485 75 249.025V256.912C75 258.03 73.602 258.674 72.6114 258.011C72.227 257.754 72 257.346 72 256.912Z" fill="white"/>
<path d="M58 174.43V165.574C58 164.588 59.1139 163.928 60.1055 164.326C60.6492 164.544 61 165.034 61 165.574V174.43C61 175.548 59.602 176.192 58.6114 175.529C58.227 175.272 58 174.864 58 174.43Z" fill="white"/>
<path d="M65 177.264V169.157C65 168.186 66.0839 167.526 67.0711 167.895C67.6332 168.106 68 168.604 68 169.157V177.264C68 178.363 66.6466 179.011 65.6512 178.39C65.2436 178.135 65 177.714 65 177.264Z" fill="white"/>
<path d="M72 179.401V171.514C72 170.528 73.1139 169.868 74.1055 170.266C74.6492 170.484 75 170.974 75 171.514V179.401C75 180.52 73.602 181.163 72.6114 180.5C72.227 180.243 72 179.835 72 179.401Z" fill="white"/>
<path d="M58 212.821V203.966C58 202.98 59.1139 202.319 60.1055 202.717C60.6492 202.935 61 203.425 61 203.966V212.821C61 213.94 59.602 214.583 58.6114 213.921C58.227 213.663 58 213.255 58 212.821Z" fill="white"/>
<path d="M65 215.656V207.549C65 206.578 66.0839 205.917 67.0711 206.287C67.6332 206.498 68 206.996 68 207.549V215.656C68 216.754 66.6466 217.403 65.6512 216.781C65.2436 216.527 65 216.106 65 215.656Z" fill="white"/>
<path d="M72 217.793V209.906C72 208.92 73.1139 208.26 74.1055 208.657C74.6492 208.876 75 209.365 75 209.906V217.793C75 218.911 73.602 219.555 72.6114 218.892C72.227 218.635 72 218.227 72 217.793Z" fill="white"/>
<path d="M130.953 252.927C130.582 254.145 129.422 254.878 128.362 254.565C127.302 254.252 126.744 253.011 127.115 251.793C127.486 250.576 128.646 249.842 129.706 250.156C130.766 250.469 131.325 251.71 130.953 252.927Z" fill="white"/>
<path d="M138.301 250.296C137.93 251.514 136.77 252.247 135.71 251.934C134.65 251.621 134.091 250.38 134.463 249.162C134.834 247.945 135.994 247.211 137.054 247.525C138.114 247.838 138.672 249.079 138.301 250.296Z" fill="white"/>
<path d="M145.885 247.474C145.514 248.691 144.354 249.425 143.294 249.111C142.234 248.798 141.675 247.557 142.047 246.34C142.418 245.122 143.578 244.389 144.638 244.702C145.698 245.015 146.256 246.256 145.885 247.474Z" fill="white"/>
<path d="M130.953 175.417C130.582 176.634 129.422 177.367 128.362 177.054C127.302 176.741 126.744 175.5 127.115 174.282C127.486 173.065 128.646 172.332 129.706 172.645C130.766 172.958 131.325 174.199 130.953 175.417Z" fill="white"/>
<path d="M138.301 172.785C137.93 174.003 136.77 174.736 135.71 174.423C134.65 174.11 134.091 172.869 134.463 171.651C134.834 170.434 135.994 169.701 137.054 170.014C138.114 170.327 138.672 171.568 138.301 172.785Z" fill="white"/>
<path d="M145.885 169.963C145.514 171.181 144.354 171.914 143.294 171.601C142.234 171.287 141.675 170.047 142.047 168.829C142.418 167.611 143.578 166.878 144.638 167.191C145.698 167.505 146.256 168.746 145.885 169.963Z" fill="white"/>
<path d="M130.953 213.808C130.582 215.026 129.422 215.759 128.362 215.446C127.302 215.132 126.744 213.892 127.115 212.674C127.486 211.456 128.646 210.723 129.706 211.036C130.766 211.35 131.325 212.591 130.953 213.808Z" fill="white"/>
<path d="M138.301 211.177C137.93 212.395 136.77 213.128 135.71 212.815C134.65 212.501 134.091 211.261 134.463 210.043C134.834 208.825 135.994 208.092 137.054 208.405C138.114 208.719 138.672 209.959 138.301 211.177Z" fill="white"/>
<path d="M145.885 208.355C145.514 209.572 144.354 210.305 143.294 209.992C142.234 209.679 141.675 208.438 142.047 207.221C142.418 206.003 143.578 205.27 144.638 205.583C145.698 205.896 146.256 207.137 145.885 208.355Z" fill="white"/>
<path d="M194 214.216V186.295H297V214.216C297 218.869 283.804 231.123 245.414 231.123C207.025 231.123 194 219.024 194 214.216Z" fill="#94A3B8"/>
<ellipse cx="245.5" cy="186.761" rx="51.5" ry="18.5229" fill="#B7C4D6"/>
<path d="M198 182.819V157.321H293V182.819C293 187.069 280.829 198.26 245.421 198.26C210.013 198.26 198 187.211 198 182.819Z" fill="#64748B"/>
<rect x="207" y="128.209" width="4" height="10.917" fill="#D9D9D9"/>
<path d="M194 175.097V147.176H297V175.097C297 179.75 283.804 192.004 245.414 192.004C207.025 192.004 194 179.905 194 175.097Z" fill="#94A3B8"/>
<ellipse cx="245.5" cy="147.642" rx="51.5" ry="18.5229" fill="#B7C4D6"/>
<path d="M198 143.7V118.202H293V143.7C293 147.95 280.829 159.141 245.421 159.141C210.013 159.141 198 148.092 198 143.7Z" fill="#64748B"/>
<path d="M194 135.978V108.057H297V135.978C297 140.631 283.804 152.885 245.414 152.885C207.025 152.885 194 140.786 194 135.978Z" fill="#94A3B8"/>
<ellipse cx="245.5" cy="108.523" rx="51.5" ry="18.5229" fill="#B7C4D6"/>
<path d="M202 213.94V205.085C202 204.099 203.114 203.438 204.105 203.836C204.649 204.055 205 204.544 205 205.085V213.94C205 215.059 203.602 215.702 202.611 215.04C202.227 214.783 202 214.374 202 213.94Z" fill="white"/>
<path d="M209 216.775V208.668C209 207.697 210.084 207.036 211.071 207.406C211.633 207.617 212 208.115 212 208.668V216.775C212 217.873 210.647 218.522 209.651 217.9C209.244 217.646 209 217.225 209 216.775Z" fill="white"/>
<path d="M216 218.912V211.025C216 210.039 217.114 209.379 218.105 209.777C218.649 209.995 219 210.485 219 211.025V218.912C219 220.03 217.602 220.674 216.611 220.011C216.227 219.754 216 219.346 216 218.912Z" fill="white"/>
<path d="M202 136.43V127.574C202 126.588 203.114 125.928 204.105 126.326C204.649 126.544 205 127.034 205 127.574V136.43C205 137.548 203.602 138.192 202.611 137.529C202.227 137.272 202 136.864 202 136.43Z" fill="white"/>
<path d="M209 139.264V131.157C209 130.186 210.084 129.526 211.071 129.895C211.633 130.106 212 130.604 212 131.157V139.264C212 140.363 210.647 141.011 209.651 140.39C209.244 140.135 209 139.714 209 139.264Z" fill="white"/>
<path d="M216 141.401V133.514C216 132.528 217.114 131.868 218.105 132.266C218.649 132.484 219 132.974 219 133.514V141.401C219 142.52 217.602 143.163 216.611 142.5C216.227 142.243 216 141.835 216 141.401Z" fill="white"/>
<path d="M202 174.821V165.966C202 164.98 203.114 164.319 204.105 164.717C204.649 164.935 205 165.425 205 165.966V174.821C205 175.94 203.602 176.583 202.611 175.921C202.227 175.663 202 175.255 202 174.821Z" fill="white"/>
<path d="M209 177.656V169.549C209 168.578 210.084 167.917 211.071 168.287C211.633 168.498 212 168.996 212 169.549V177.656C212 178.754 210.647 179.403 209.651 178.781C209.244 178.527 209 178.106 209 177.656Z" fill="white"/>
<path d="M216 179.793V171.906C216 170.92 217.114 170.26 218.105 170.657C218.649 170.876 219 171.365 219 171.906V179.793C219 180.911 217.602 181.555 216.611 180.892C216.227 180.635 216 180.227 216 179.793Z" fill="white"/>
<path d="M274.953 214.927C274.582 216.145 273.422 216.878 272.362 216.565C271.302 216.252 270.744 215.011 271.115 213.793C271.486 212.576 272.646 211.842 273.706 212.156C274.766 212.469 275.325 213.71 274.953 214.927Z" fill="white"/>
<path d="M282.301 212.296C281.93 213.514 280.77 214.247 279.71 213.934C278.65 213.621 278.091 212.38 278.463 211.162C278.834 209.945 279.994 209.211 281.054 209.525C282.114 209.838 282.672 211.079 282.301 212.296Z" fill="white"/>
<path d="M289.885 209.474C289.514 210.691 288.354 211.425 287.294 211.111C286.234 210.798 285.675 209.557 286.047 208.34C286.418 207.122 287.578 206.389 288.638 206.702C289.698 207.015 290.256 208.256 289.885 209.474Z" fill="white"/>
<path d="M274.953 137.417C274.582 138.634 273.422 139.367 272.362 139.054C271.302 138.741 270.744 137.5 271.115 136.282C271.486 135.065 272.646 134.332 273.706 134.645C274.766 134.958 275.325 136.199 274.953 137.417Z" fill="white"/>
<path d="M282.301 134.785C281.93 136.003 280.77 136.736 279.71 136.423C278.65 136.11 278.091 134.869 278.463 133.651C278.834 132.434 279.994 131.701 281.054 132.014C282.114 132.327 282.672 133.568 282.301 134.785Z" fill="white"/>
<path d="M289.885 131.963C289.514 133.181 288.354 133.914 287.294 133.601C286.234 133.287 285.675 132.047 286.047 130.829C286.418 129.611 287.578 128.878 288.638 129.191C289.698 129.505 290.256 130.746 289.885 131.963Z" fill="white"/>
<path d="M274.953 175.808C274.582 177.026 273.422 177.759 272.362 177.446C271.302 177.132 270.744 175.892 271.115 174.674C271.486 173.456 272.646 172.723 273.706 173.036C274.766 173.35 275.325 174.591 274.953 175.808Z" fill="white"/>
<path d="M282.301 173.177C281.93 174.395 280.77 175.128 279.71 174.815C278.65 174.501 278.091 173.261 278.463 172.043C278.834 170.825 279.994 170.092 281.054 170.405C282.114 170.719 282.672 171.959 282.301 173.177Z" fill="white"/>
<path d="M289.885 170.355C289.514 171.572 288.354 172.305 287.294 171.992C286.234 171.679 285.675 170.438 286.047 169.221C286.418 168.003 287.578 167.27 288.638 167.583C289.698 167.896 290.256 169.137 289.885 170.355Z" fill="white"/>
<path d="M102 146L107.601 135.902L96.0556 136.101L102 146ZM103.131 138.655C103.222 137.202 103.359 135.569 103.561 133.79L101.574 133.564C101.368 135.379 101.228 137.045 101.135 138.53L103.131 138.655ZM104.229 128.954C104.482 127.406 104.783 125.79 105.141 124.12L103.186 123.7C102.82 125.404 102.513 127.053 102.255 128.632L104.229 128.954ZM106.287 119.38C106.701 117.843 107.166 116.278 107.687 114.693L105.787 114.068C105.254 115.689 104.779 117.29 104.356 118.859L106.287 119.38ZM109.349 110.088C109.937 108.597 110.578 107.098 111.277 105.601L109.465 104.754C108.748 106.291 108.09 107.827 107.488 109.355L109.349 110.088ZM113.481 101.254C114.254 99.8468 115.082 98.4483 115.971 97.0651L114.288 95.9841C113.374 97.4074 112.522 98.8456 111.728 100.291L113.481 101.254ZM118.749 93.0648C119.711 91.7819 120.731 90.5191 121.813 89.2826L120.308 87.9657C119.192 89.2411 118.14 90.5429 117.149 91.8649L118.749 93.0648ZM125.155 85.7472C126.298 84.629 127.499 83.5396 128.762 82.4841L127.479 80.9495C126.176 82.0391 124.936 83.1637 123.757 84.3178L125.155 85.7472ZM132.612 79.5139C133.911 78.5907 135.266 77.7015 136.682 76.8508L135.651 75.1367C134.192 76.014 132.794 76.9311 131.454 77.8839L132.612 79.5139ZM140.942 74.5015C142.362 73.7851 143.836 73.1051 145.365 72.4651L144.593 70.6202C143.021 71.2783 141.504 71.9779 140.041 72.7157L140.942 74.5015ZM149.928 70.7346C151.44 70.2179 153 69.738 154.611 69.2977L154.084 67.3685C152.433 67.8196 150.833 68.3117 149.281 68.8421L149.928 70.7346ZM159.355 68.1496C160.906 67.8207 162.5 67.5266 164.138 67.2694L163.828 65.2936C162.155 65.5562 160.526 65.8567 158.94 66.1931L159.355 68.1496ZM168.99 66.6312C170.592 66.4599 172.234 66.322 173.916 66.2194L173.794 64.2231C172.083 64.3276 170.411 64.4679 168.778 64.6425L168.99 66.6312ZM178.767 66.0247C179.593 66.0083 180.429 66 181.274 66V64C180.416 64 179.567 64.0084 178.727 64.0251L178.767 66.0247ZM181.274 66C182.115 66 182.946 66.0106 183.767 66.0315L183.818 64.0321C182.98 64.0108 182.132 64 181.274 64V66ZM188.693 66.2859C190.369 66.4176 192.001 66.5931 193.59 66.8088L193.859 64.8269C192.233 64.6062 190.563 64.4267 188.85 64.2921L188.693 66.2859ZM198.442 67.6151C200.097 67.942 201.701 68.3133 203.253 68.7243L203.765 66.7909C202.171 66.369 200.526 65.9881 198.829 65.653L198.442 67.6151ZM207.967 70.14C209.557 70.6765 211.088 71.2546 212.562 71.868L213.33 70.0216C211.815 69.3906 210.24 68.7962 208.606 68.245L207.967 70.14ZM217.04 73.9222C218.541 74.6773 219.975 75.4677 221.342 76.2848L222.368 74.568C220.96 73.7265 219.484 72.9127 217.939 72.1354L217.04 73.9222ZM225.467 78.9612C226.853 79.9344 228.157 80.9299 229.385 81.9356L230.652 80.3887C229.388 79.3527 228.044 78.3271 226.617 77.3247L225.467 78.9612ZM233.068 85.1893C234.312 86.3727 235.454 87.5519 236.501 88.7074L237.983 87.3648C236.905 86.1743 235.728 84.9595 234.447 83.7405L233.068 85.1893ZM239.658 92.467C240.768 93.8949 241.719 95.2424 242.522 96.4637L244.193 95.3646C243.363 94.1023 242.382 92.7117 241.237 91.2395L239.658 92.467ZM245.029 100.667C245.394 101.352 245.658 101.893 245.83 102.259C245.916 102.443 245.979 102.582 246.02 102.674C246.04 102.721 246.055 102.755 246.064 102.777C246.069 102.788 246.073 102.795 246.075 102.8C246.076 102.803 246.076 102.804 246.076 102.805C246.077 102.805 246.077 102.805 246.077 102.805C246.077 102.805 246.077 102.805 246.077 102.805C246.077 102.805 246.077 102.805 246.077 102.805C246.077 102.805 246.077 102.805 246.077 102.805C246.077 102.805 246.076 102.805 247 102.421C247.923 102.037 247.923 102.037 247.923 102.037C247.923 102.037 247.923 102.037 247.923 102.037C247.923 102.037 247.923 102.037 247.923 102.036C247.923 102.036 247.923 102.036 247.923 102.035C247.922 102.035 247.922 102.034 247.921 102.032C247.92 102.03 247.919 102.027 247.917 102.023C247.914 102.015 247.909 102.004 247.903 101.989C247.891 101.961 247.873 101.92 247.85 101.867C247.803 101.761 247.734 101.607 247.641 101.41C247.455 101.014 247.176 100.443 246.795 99.7269L245.029 100.667Z" fill="url(#paint0_linear_80_913)"/>
<g filter="url(#filter0_d_80_913)">
<rect x="131" y="32" width="69" height="69" rx="15" fill="white"/>
<path opacity="0.35" fill-rule="evenodd" clip-rule="evenodd" d="M152.314 73.4746C151.344 73.6195 150.442 74.0392 149.624 74.726C148.559 75.6204 147.266 78.474 145.583 83.6481C144.682 86.4145 144.653 86.5919 145.022 86.9709C145.394 87.3513 145.57 87.3204 148.249 86.4047C153.307 84.6758 156.096 83.3489 156.97 82.2551C158.731 80.0536 158.657 77.0846 156.793 75.0692C155.992 74.2032 154.924 73.6459 153.727 73.4685C153.105 73.3764 152.968 73.377 152.314 73.4746Z" fill="#F2716C"/>
<path fill-rule="evenodd" clip-rule="evenodd" d="M183.325 45.8388C177.46 46.3145 171.605 48.6151 166.562 52.426C165.398 53.3051 164.698 53.9212 163.322 55.2748L162.108 56.4703L161.136 56.5193C156.327 56.7618 151.159 59.0186 147.628 62.4182C146.959 63.0628 146.922 63.1154 146.923 63.4411C146.923 63.7007 146.978 63.8453 147.146 64.0341L147.369 64.2837L150.832 64.787L154.295 65.2904L153.816 65.8316C153.271 66.4463 153.169 66.734 153.356 67.1289C153.528 67.4913 164.631 78.5926 164.936 78.7065C165.305 78.8447 165.594 78.7313 166.181 78.2173L166.724 77.7418L167.21 81.1276C167.556 83.5405 167.735 84.5743 167.834 84.7251C168.027 85.0192 168.462 85.1534 168.829 85.0322C169.329 84.867 170.78 83.1792 171.965 81.3832C173.993 78.3113 175.303 74.3958 175.48 70.8822L175.529 69.9092L176.723 68.6928C178.524 66.8581 179.519 65.6399 180.842 63.651C184.189 58.6168 186.202 52.4609 186.2 47.2608C186.199 46.3841 186.058 46.0127 185.668 45.8643C185.477 45.7916 184.093 45.7765 183.325 45.8388ZM175.21 53.446C176.89 53.8025 178.193 55.1073 178.549 56.7901C178.613 57.0928 178.666 57.4864 178.666 57.6648C178.666 59.1969 177.655 60.8371 176.303 61.5004C175.726 61.7832 174.872 62.0002 174.336 62.0002C172.811 62.0002 171.166 60.984 170.506 59.6342C170.223 59.0567 170.006 58.2016 170.006 57.6648C170.006 56.5912 170.504 55.4198 171.299 54.624C172.357 53.5647 173.767 53.1399 175.21 53.446Z" fill="#F2716C"/>
</g>
<defs>
<filter id="filter0_d_80_913" x="111" y="16" width="109" height="109" filterUnits="userSpaceOnUse" color-interpolation-filters="sRGB">
<feFlood flood-opacity="0" result="BackgroundImageFix"/>
<feColorMatrix in="SourceAlpha" type="matrix" values="0 0 0 0 0 0 0 0 0 0 0 0 0 0 0 0 0 0 127 0" result="hardAlpha"/>
<feOffset dy="4"/>
<feGaussianBlur stdDeviation="10"/>
<feComposite in2="hardAlpha" operator="out"/>
<feColorMatrix type="matrix" values="0 0 0 0 0 0 0 0 0 0 0 0 0 0 0 0 0 0 0.06 0"/>
<feBlend mode="normal" in2="BackgroundImageFix" result="effect1_dropShadow_80_913"/>
<feBlend mode="normal" in="SourceGraphic" in2="effect1_dropShadow_80_913" result="shape"/>
</filter>
<linearGradient id="paint0_linear_80_913" x1="259.041" y1="75.8947" x2="104.461" y2="123.277" gradientUnits="userSpaceOnUse">
<stop stop-color="#F2716C"/>
<stop offset="1" stop-color="#4D5FFF"/>
</linearGradient>
</defs>
</svg>
