<svg width="347" height="300" viewBox="0 0 347 300" fill="none" xmlns="http://www.w3.org/2000/svg">
<g clip-path="url(#clip0_80_830)">
<path d="M0 6.99999C0 3.134 3.13401 0 7 0H340C343.866 0 347 3.13401 347 7V300H0V6.99999Z" fill="#F0F4F9"/>
<rect x="30" y="135" width="136" height="303" rx="7" fill="white"/>
<circle cx="51.5" cy="155.5" r="5.5" fill="#E59B9D"/>
<circle cx="69.5" cy="155.5" r="5.5" fill="#E5C995"/>
<circle cx="87.5" cy="155.5" r="5.5" fill="#7FD6C1"/>
<rect x="47" y="190" width="16" height="6" rx="3" fill="#CBD5E1"/>
<rect x="47" y="208" width="23" height="6" rx="3" fill="#CBD5E1"/>
<rect x="47" y="226" width="27" height="6" rx="3" fill="#CBD5E1"/>
<rect x="47" y="244" width="17" height="6" rx="3" fill="#CBD5E1"/>
<rect x="47" y="262" width="24" height="6" rx="3" fill="#CBD5E1"/>
<rect x="47" y="280" width="17" height="6" rx="3" fill="#CBD5E1"/>
<rect x="47" y="298" width="27" height="6" rx="3" fill="#CBD5E1"/>
<rect x="98" y="190" width="15" height="6" rx="3" fill="#CBD5E1"/>
<rect x="98" y="208" width="26" height="6" rx="3" fill="#CBD5E1"/>
<rect x="98" y="226" width="31" height="6" rx="3" fill="#CBD5E1"/>
<rect x="98" y="244" width="18" height="6" rx="3" fill="#CBD5E1"/>
<rect x="98" y="262" width="27" height="6" rx="3" fill="#CBD5E1"/>
<rect x="98" y="280" width="14" height="6" rx="3" fill="#CBD5E1"/>
<rect x="98" y="298" width="28" height="6" rx="3" fill="#CBD5E1"/>
<path d="M89.9286 92.8767C81.2647 93.1367 69.4031 100.215 70.1609 118.629M70.1609 118.629L76.2646 112.332M70.1609 118.629L63.5836 113.417" stroke="#94A3B8" stroke-width="2" stroke-linecap="round" stroke-linejoin="round"/>
<g filter="url(#filter0_d_80_830)">
<rect x="123" y="32" width="194" height="320" rx="7" fill="white"/>
<path d="M146.903 55.3359V56.8008H141.952V66H140.121V55.3359H146.903ZM146.632 62.1255V61.957C146.632 61.3857 146.715 60.856 146.881 60.3677C147.047 59.8745 147.286 59.4473 147.599 59.0859C147.916 58.7197 148.302 58.4365 148.756 58.2363C149.215 58.0312 149.732 57.9287 150.309 57.9287C150.89 57.9287 151.407 58.0312 151.861 58.2363C152.32 58.4365 152.708 58.7197 153.026 59.0859C153.343 59.4473 153.585 59.8745 153.751 60.3677C153.917 60.856 154 61.3857 154 61.957V62.1255C154 62.6968 153.917 63.2266 153.751 63.7148C153.585 64.2031 153.343 64.6304 153.026 64.9966C152.708 65.3579 152.323 65.6411 151.869 65.8462C151.415 66.0464 150.899 66.1465 150.323 66.1465C149.742 66.1465 149.222 66.0464 148.763 65.8462C148.309 65.6411 147.923 65.3579 147.606 64.9966C147.289 64.6304 147.047 64.2031 146.881 63.7148C146.715 63.2266 146.632 62.6968 146.632 62.1255ZM148.397 61.957V62.1255C148.397 62.4819 148.434 62.8188 148.507 63.1362C148.58 63.4536 148.695 63.7319 148.851 63.9712C149.007 64.2104 149.208 64.3984 149.452 64.5352C149.696 64.6719 149.986 64.7402 150.323 64.7402C150.65 64.7402 150.934 64.6719 151.173 64.5352C151.417 64.3984 151.617 64.2104 151.773 63.9712C151.93 63.7319 152.044 63.4536 152.118 63.1362C152.196 62.8188 152.235 62.4819 152.235 62.1255V61.957C152.235 61.6055 152.196 61.2734 152.118 60.9609C152.044 60.6436 151.927 60.3628 151.766 60.1187C151.61 59.8745 151.41 59.6841 151.166 59.5474C150.926 59.4058 150.641 59.335 150.309 59.335C149.977 59.335 149.688 59.4058 149.444 59.5474C149.205 59.6841 149.007 59.8745 148.851 60.1187C148.695 60.3628 148.58 60.6436 148.507 60.9609C148.434 61.2734 148.397 61.6055 148.397 61.957ZM157.252 59.5986V69.0469H155.487V58.0752H157.113L157.252 59.5986ZM162.416 61.9644V62.1182C162.416 62.6943 162.347 63.229 162.21 63.7222C162.079 64.2104 161.881 64.6377 161.617 65.0039C161.358 65.3652 161.039 65.646 160.658 65.8462C160.277 66.0464 159.837 66.1465 159.339 66.1465C158.846 66.1465 158.414 66.0562 158.043 65.8755C157.677 65.6899 157.367 65.4287 157.113 65.0918C156.859 64.7549 156.654 64.3594 156.498 63.9053C156.346 63.4463 156.239 62.9434 156.175 62.3965V61.8032C156.239 61.2222 156.346 60.6948 156.498 60.2212C156.654 59.7476 156.859 59.3398 157.113 58.998C157.367 58.6562 157.677 58.3926 158.043 58.207C158.409 58.0215 158.836 57.9287 159.325 57.9287C159.823 57.9287 160.265 58.0264 160.65 58.2217C161.036 58.4121 161.361 58.6855 161.625 59.042C161.888 59.3936 162.086 59.8184 162.218 60.3164C162.35 60.8096 162.416 61.3589 162.416 61.9644ZM160.65 62.1182V61.9644C160.65 61.5981 160.616 61.2588 160.548 60.9463C160.479 60.6289 160.372 60.3506 160.226 60.1113C160.079 59.8721 159.891 59.6865 159.662 59.5547C159.437 59.418 159.166 59.3496 158.849 59.3496C158.536 59.3496 158.268 59.4033 158.043 59.5107C157.818 59.6133 157.63 59.7573 157.479 59.9429C157.328 60.1284 157.21 60.3457 157.127 60.5947C157.044 60.8389 156.986 61.105 156.952 61.3931V62.814C157.01 63.1655 157.11 63.4878 157.252 63.7808C157.394 64.0737 157.594 64.3081 157.853 64.4839C158.116 64.6548 158.453 64.7402 158.863 64.7402C159.181 64.7402 159.452 64.6719 159.676 64.5352C159.901 64.3984 160.084 64.2104 160.226 63.9712C160.372 63.7271 160.479 63.4463 160.548 63.1289C160.616 62.8115 160.65 62.4746 160.65 62.1182ZM163.58 62.1255V61.957C163.58 61.3857 163.663 60.856 163.829 60.3677C163.995 59.8745 164.234 59.4473 164.547 59.0859C164.864 58.7197 165.25 58.4365 165.704 58.2363C166.163 58.0312 166.681 57.9287 167.257 57.9287C167.838 57.9287 168.355 58.0312 168.81 58.2363C169.269 58.4365 169.657 58.7197 169.974 59.0859C170.292 59.4473 170.533 59.8745 170.699 60.3677C170.865 60.856 170.948 61.3857 170.948 61.957V62.1255C170.948 62.6968 170.865 63.2266 170.699 63.7148C170.533 64.2031 170.292 64.6304 169.974 64.9966C169.657 65.3579 169.271 65.6411 168.817 65.8462C168.363 66.0464 167.848 66.1465 167.271 66.1465C166.69 66.1465 166.17 66.0464 165.711 65.8462C165.257 65.6411 164.872 65.3579 164.554 64.9966C164.237 64.6304 163.995 64.2031 163.829 63.7148C163.663 63.2266 163.58 62.6968 163.58 62.1255ZM165.345 61.957V62.1255C165.345 62.4819 165.382 62.8188 165.455 63.1362C165.528 63.4536 165.643 63.7319 165.799 63.9712C165.956 64.2104 166.156 64.3984 166.4 64.5352C166.644 64.6719 166.935 64.7402 167.271 64.7402C167.599 64.7402 167.882 64.6719 168.121 64.5352C168.365 64.3984 168.565 64.2104 168.722 63.9712C168.878 63.7319 168.993 63.4536 169.066 63.1362C169.144 62.8188 169.183 62.4819 169.183 62.1255V61.957C169.183 61.6055 169.144 61.2734 169.066 60.9609C168.993 60.6436 168.875 60.3628 168.714 60.1187C168.558 59.8745 168.358 59.6841 168.114 59.5474C167.875 59.4058 167.589 59.335 167.257 59.335C166.925 59.335 166.637 59.4058 166.393 59.5474C166.153 59.6841 165.956 59.8745 165.799 60.1187C165.643 60.3628 165.528 60.6436 165.455 60.9609C165.382 61.2734 165.345 61.6055 165.345 61.957ZM173.336 58.0752H175.101L175.013 60.8657C174.989 61.6763 174.896 62.3721 174.735 62.9531C174.574 63.5342 174.364 64.0249 174.105 64.4253C173.846 64.8208 173.553 65.1455 173.226 65.3994C172.904 65.6533 172.564 65.8535 172.208 66H171.688V64.6084L171.937 64.5938C172.147 64.3691 172.328 64.1445 172.479 63.9199C172.635 63.6904 172.767 63.439 172.875 63.1655C172.982 62.8872 173.065 62.5625 173.124 62.1914C173.187 61.8203 173.229 61.3784 173.248 60.8657L173.336 58.0752ZM173.805 58.0752H178.829V66H177.071V59.5693H173.805V58.0752ZM171.285 64.5938H179.913V68.3584H178.148V66H173.072V68.3584H171.278L171.285 64.5938ZM182.828 64.3008L182.821 65.5605C182.821 66.0586 182.696 66.5713 182.447 67.0986C182.198 67.626 181.869 68.0605 181.458 68.4023L180.514 67.853C180.65 67.6333 180.775 67.4111 180.887 67.1865C181 66.9619 181.09 66.7227 181.158 66.4688C181.227 66.2148 181.261 65.9341 181.261 65.6265V64.3008H182.828ZM190.562 65.1357L192.716 58.0752H194.605L191.427 67.2085C191.354 67.4038 191.258 67.6162 191.141 67.8457C191.024 68.0752 190.87 68.2925 190.68 68.4976C190.494 68.7075 190.262 68.876 189.984 69.0029C189.706 69.1348 189.369 69.2007 188.973 69.2007C188.817 69.2007 188.666 69.186 188.519 69.1567C188.377 69.1323 188.243 69.1055 188.116 69.0762L188.109 67.7285C188.158 67.7334 188.216 67.7383 188.285 67.7432C188.358 67.748 188.417 67.7505 188.46 67.7505C188.753 67.7505 188.998 67.7139 189.193 67.6406C189.388 67.5723 189.547 67.46 189.669 67.3037C189.796 67.1475 189.903 66.9375 189.991 66.6738L190.562 65.1357ZM189.347 58.0752L191.229 64.0078L191.544 65.8682L190.321 66.1831L187.442 58.0752H189.347ZM200.633 58.0752V59.4814H196.766V58.0752H200.633ZM202.018 58.0752V66H200.252V58.0752H202.018ZM196.334 58.0752H198.077L197.865 61.9937C197.835 62.5747 197.777 63.0874 197.689 63.5317C197.606 63.9712 197.494 64.3496 197.352 64.667C197.21 64.9795 197.037 65.2334 196.832 65.4287C196.627 65.624 196.388 65.7681 196.114 65.8608C195.841 65.9536 195.533 66 195.191 66H194.642L194.635 64.5498L194.913 64.5278C195.094 64.5132 195.25 64.4668 195.382 64.3887C195.514 64.3057 195.626 64.1885 195.719 64.0371C195.816 63.8857 195.895 63.6904 195.953 63.4512C196.017 63.2119 196.065 62.9287 196.1 62.6016C196.139 62.2744 196.168 61.8936 196.188 61.459L196.334 58.0752ZM205.716 63.4219L208.829 58.0752H210.594V66H208.829V60.646L205.716 66H203.951V58.0752H205.716V63.4219ZM212.521 66V58.0752H214.286V64.5938H217.391V58.0752H219.164V66H212.521ZM220.24 64.6011L220.101 68.3511H218.482V66H217.53V64.6011H220.24ZM225.953 64.4106V60.6313C225.953 60.3481 225.902 60.104 225.799 59.8989C225.697 59.6938 225.541 59.5352 225.331 59.4229C225.125 59.3105 224.867 59.2544 224.554 59.2544C224.266 59.2544 224.017 59.3032 223.807 59.4009C223.597 59.4985 223.434 59.6304 223.316 59.7964C223.199 59.9624 223.141 60.1504 223.141 60.3604H221.383C221.383 60.0479 221.458 59.7451 221.61 59.4521C221.761 59.1592 221.981 58.8979 222.269 58.6685C222.557 58.439 222.901 58.2583 223.302 58.1265C223.702 57.9946 224.151 57.9287 224.649 57.9287C225.245 57.9287 225.772 58.0288 226.231 58.229C226.695 58.4292 227.059 58.7319 227.323 59.1372C227.591 59.5376 227.726 60.0405 227.726 60.646V64.1689C227.726 64.5303 227.75 64.855 227.799 65.1431C227.853 65.4263 227.928 65.6729 228.026 65.8828V66H226.217C226.134 65.8096 226.068 65.5679 226.019 65.2749C225.975 64.9771 225.953 64.689 225.953 64.4106ZM226.209 61.1807L226.224 62.272H224.957C224.63 62.272 224.342 62.3037 224.093 62.3672C223.844 62.4258 223.636 62.5137 223.47 62.6309C223.304 62.748 223.18 62.8896 223.097 63.0557C223.014 63.2217 222.972 63.4097 222.972 63.6196C222.972 63.8296 223.021 64.0225 223.119 64.1982C223.216 64.3691 223.358 64.5034 223.543 64.6011C223.734 64.6987 223.963 64.7476 224.232 64.7476C224.593 64.7476 224.908 64.6743 225.177 64.5278C225.45 64.3765 225.665 64.1934 225.821 63.9785C225.978 63.7588 226.061 63.5513 226.07 63.356L226.642 64.1396C226.583 64.3398 226.483 64.5547 226.341 64.7842C226.2 65.0137 226.014 65.2334 225.785 65.4434C225.56 65.6484 225.289 65.8169 224.972 65.9487C224.659 66.0806 224.298 66.1465 223.888 66.1465C223.37 66.1465 222.909 66.0439 222.503 65.8389C222.098 65.6289 221.781 65.3481 221.551 64.9966C221.322 64.6401 221.207 64.2373 221.207 63.7881C221.207 63.3682 221.285 62.9971 221.441 62.6748C221.603 62.3477 221.837 62.0742 222.145 61.8545C222.457 61.6348 222.838 61.4688 223.287 61.3564C223.736 61.2393 224.249 61.1807 224.825 61.1807H226.209ZM231.227 64.3008L231.219 65.5605C231.219 66.0586 231.095 66.5713 230.846 67.0986C230.597 67.626 230.267 68.0605 229.857 68.4023L228.912 67.853C229.049 67.6333 229.173 67.4111 229.286 67.1865C229.398 66.9619 229.488 66.7227 229.557 66.4688C229.625 66.2148 229.659 65.9341 229.659 65.6265V64.3008H231.227ZM238.097 58.0752H239.862L239.774 60.8657C239.75 61.6763 239.657 62.3721 239.496 62.9531C239.334 63.5342 239.125 64.0249 238.866 64.4253C238.607 64.8208 238.314 65.1455 237.987 65.3994C237.665 65.6533 237.325 65.8535 236.969 66H236.449V64.6084L236.698 64.5938C236.908 64.3691 237.088 64.1445 237.24 63.9199C237.396 63.6904 237.528 63.439 237.635 63.1655C237.743 62.8872 237.826 62.5625 237.884 62.1914C237.948 61.8203 237.989 61.3784 238.009 60.8657L238.097 58.0752ZM238.565 58.0752H243.59V66H241.832V59.5693H238.565V58.0752ZM236.046 64.5938H244.674V68.3584H242.909V66H237.833V68.3584H236.039L236.046 64.5938ZM245.597 62.1255V61.957C245.597 61.3857 245.68 60.856 245.846 60.3677C246.012 59.8745 246.251 59.4473 246.563 59.0859C246.881 58.7197 247.267 58.4365 247.721 58.2363C248.18 58.0312 248.697 57.9287 249.273 57.9287C249.854 57.9287 250.372 58.0312 250.826 58.2363C251.285 58.4365 251.673 58.7197 251.991 59.0859C252.308 59.4473 252.55 59.8745 252.716 60.3677C252.882 60.856 252.965 61.3857 252.965 61.957V62.1255C252.965 62.6968 252.882 63.2266 252.716 63.7148C252.55 64.2031 252.308 64.6304 251.991 64.9966C251.673 65.3579 251.288 65.6411 250.833 65.8462C250.379 66.0464 249.864 66.1465 249.288 66.1465C248.707 66.1465 248.187 66.0464 247.728 65.8462C247.274 65.6411 246.888 65.3579 246.571 64.9966C246.253 64.6304 246.012 64.2031 245.846 63.7148C245.68 63.2266 245.597 62.6968 245.597 62.1255ZM247.362 61.957V62.1255C247.362 62.4819 247.398 62.8188 247.472 63.1362C247.545 63.4536 247.66 63.7319 247.816 63.9712C247.972 64.2104 248.172 64.3984 248.417 64.5352C248.661 64.6719 248.951 64.7402 249.288 64.7402C249.615 64.7402 249.898 64.6719 250.138 64.5352C250.382 64.3984 250.582 64.2104 250.738 63.9712C250.895 63.7319 251.009 63.4536 251.083 63.1362C251.161 62.8188 251.2 62.4819 251.2 62.1255V61.957C251.2 61.6055 251.161 61.2734 251.083 60.9609C251.009 60.6436 250.892 60.3628 250.731 60.1187C250.575 59.8745 250.375 59.6841 250.13 59.5474C249.891 59.4058 249.605 59.335 249.273 59.335C248.941 59.335 248.653 59.4058 248.409 59.5474C248.17 59.6841 247.972 59.8745 247.816 60.1187C247.66 60.3628 247.545 60.6436 247.472 60.9609C247.398 61.2734 247.362 61.6055 247.362 61.957ZM259.154 63.8613L261.512 58.0752H263.043L259.754 66H258.553L255.272 58.0752H256.803L259.154 63.8613ZM256.349 58.0752V66H254.583V58.0752H256.349ZM261.959 66V58.0752H263.731V66H261.959ZM265.782 65.1211C265.782 64.8477 265.875 64.6182 266.061 64.4326C266.246 64.2422 266.498 64.147 266.815 64.147C267.137 64.147 267.389 64.2422 267.569 64.4326C267.755 64.6182 267.848 64.8477 267.848 65.1211C267.848 65.3945 267.755 65.624 267.569 65.8096C267.389 65.9951 267.137 66.0879 266.815 66.0879C266.498 66.0879 266.246 65.9951 266.061 65.8096C265.875 65.624 265.782 65.3945 265.782 65.1211ZM269.957 65.1211C269.957 64.8477 270.05 64.6182 270.235 64.4326C270.421 64.2422 270.672 64.147 270.99 64.147C271.312 64.147 271.563 64.2422 271.744 64.4326C271.93 64.6182 272.022 64.8477 272.022 65.1211C272.022 65.3945 271.93 65.624 271.744 65.8096C271.563 65.9951 271.312 66.0879 270.99 66.0879C270.672 66.0879 270.421 65.9951 270.235 65.8096C270.05 65.624 269.957 65.3945 269.957 65.1211ZM274.132 65.1211C274.132 64.8477 274.225 64.6182 274.41 64.4326C274.596 64.2422 274.847 64.147 275.165 64.147C275.487 64.147 275.738 64.2422 275.919 64.4326C276.104 64.6182 276.197 64.8477 276.197 65.1211C276.197 65.3945 276.104 65.624 275.919 65.8096C275.738 65.9951 275.487 66.0879 275.165 66.0879C274.847 66.0879 274.596 65.9951 274.41 65.8096C274.225 65.624 274.132 65.3945 274.132 65.1211Z" fill="#0F1629"/>
<path d="M142.792 96.9331H140.703V96.0898H142.792C143.197 96.0898 143.524 96.0254 143.775 95.8965C144.026 95.7676 144.208 95.5885 144.323 95.3594C144.441 95.1302 144.5 94.8688 144.5 94.5752C144.5 94.3066 144.441 94.0542 144.323 93.8179C144.208 93.5815 144.026 93.3918 143.775 93.2485C143.524 93.1017 143.197 93.0283 142.792 93.0283H140.944V100H139.908V92.1797H142.792C143.383 92.1797 143.882 92.2817 144.291 92.4858C144.699 92.6899 145.008 92.9728 145.22 93.3345C145.431 93.6925 145.537 94.1025 145.537 94.5645C145.537 95.0658 145.431 95.4937 145.22 95.8481C145.008 96.2026 144.699 96.473 144.291 96.6592C143.882 96.8418 143.383 96.9331 142.792 96.9331ZM149.033 100.107C148.629 100.107 148.262 100.039 147.932 99.9033C147.606 99.7637 147.325 99.5685 147.089 99.3179C146.856 99.0672 146.677 98.77 146.552 98.4263C146.426 98.0825 146.364 97.7065 146.364 97.2983V97.0728C146.364 96.6001 146.434 96.1794 146.573 95.8105C146.713 95.4382 146.903 95.123 147.143 94.8652C147.382 94.6074 147.655 94.4123 147.959 94.2798C148.263 94.1473 148.578 94.0811 148.904 94.0811C149.32 94.0811 149.678 94.1527 149.979 94.2959C150.283 94.4391 150.532 94.6396 150.725 94.8975C150.918 95.1517 151.062 95.4525 151.155 95.7998C151.248 96.1436 151.294 96.5195 151.294 96.9277V97.3735H146.955V96.5625H150.301V96.4873C150.286 96.2295 150.233 95.9788 150.14 95.7354C150.05 95.4919 149.907 95.2913 149.71 95.1338C149.513 94.9762 149.244 94.8975 148.904 94.8975C148.679 94.8975 148.471 94.9458 148.281 95.0425C148.091 95.1356 147.929 95.2752 147.792 95.4614C147.656 95.6476 147.551 95.875 147.476 96.1436C147.4 96.4121 147.363 96.7218 147.363 97.0728V97.2983C147.363 97.5741 147.4 97.8337 147.476 98.0771C147.554 98.3171 147.667 98.5283 147.814 98.7109C147.964 98.8936 148.145 99.0368 148.356 99.1406C148.571 99.2445 148.815 99.2964 149.087 99.2964C149.438 99.2964 149.735 99.2248 149.979 99.0815C150.222 98.9383 150.435 98.7467 150.618 98.5068L151.219 98.9849C151.094 99.1746 150.935 99.3555 150.741 99.5273C150.548 99.6992 150.31 99.8389 150.027 99.9463C149.748 100.054 149.416 100.107 149.033 100.107ZM156.209 94.1885V95.0103H153.523V100H152.53V94.1885H156.209ZM158.148 98.4263L160.828 94.1885H161.827V100H160.828V95.7622L158.148 100H157.16V94.1885H158.148V98.4263ZM163.159 97.1587V97.0352C163.159 96.6162 163.22 96.2277 163.342 95.8696C163.464 95.508 163.639 95.1947 163.868 94.9297C164.097 94.6611 164.375 94.4535 164.701 94.3066C165.027 94.1562 165.392 94.0811 165.796 94.0811C166.205 94.0811 166.572 94.1562 166.897 94.3066C167.227 94.4535 167.506 94.6611 167.735 94.9297C167.968 95.1947 168.145 95.508 168.267 95.8696C168.389 96.2277 168.45 96.6162 168.45 97.0352V97.1587C168.45 97.5776 168.389 97.9661 168.267 98.3242C168.145 98.6823 167.968 98.9956 167.735 99.2642C167.506 99.5291 167.229 99.7368 166.903 99.8872C166.581 100.034 166.215 100.107 165.807 100.107C165.399 100.107 165.032 100.034 164.706 99.8872C164.38 99.7368 164.101 99.5291 163.868 99.2642C163.639 98.9956 163.464 98.6823 163.342 98.3242C163.22 97.9661 163.159 97.5776 163.159 97.1587ZM164.153 97.0352V97.1587C164.153 97.4487 164.187 97.7227 164.255 97.9805C164.323 98.2347 164.425 98.4603 164.561 98.6572C164.701 98.8542 164.874 99.0099 165.082 99.1245C165.29 99.2355 165.531 99.291 165.807 99.291C166.079 99.291 166.317 99.2355 166.521 99.1245C166.729 99.0099 166.901 98.8542 167.037 98.6572C167.173 98.4603 167.275 98.2347 167.343 97.9805C167.415 97.7227 167.451 97.4487 167.451 97.1587V97.0352C167.451 96.7487 167.415 96.4784 167.343 96.2241C167.275 95.9663 167.171 95.7389 167.032 95.542C166.896 95.3415 166.724 95.1839 166.516 95.0693C166.312 94.9548 166.072 94.8975 165.796 94.8975C165.524 94.8975 165.284 94.9548 165.077 95.0693C164.873 95.1839 164.701 95.3415 164.561 95.542C164.425 95.7389 164.323 95.9663 164.255 96.2241C164.187 96.4784 164.153 96.7487 164.153 97.0352ZM173.638 96.7075V97.5132H170.566V96.7075H173.638ZM170.775 94.1885V100H169.782V94.1885H170.775ZM174.444 94.1885V100H173.445V94.1885H174.444Z" fill="#94A3B8"/>
<rect x="139" y="106" width="162" height="34" rx="7" fill="#F1F5F9"/>
<path d="M150.348 118.469H151.443L154.238 125.424L157.027 118.469H158.129L154.66 127H153.805L150.348 118.469ZM149.99 118.469H150.957L151.115 123.672V127H149.99V118.469ZM157.514 118.469H158.48V127H157.355V123.672L157.514 118.469ZM160.016 123.9V123.766C160.016 123.309 160.082 122.885 160.215 122.494C160.348 122.1 160.539 121.758 160.789 121.469C161.039 121.176 161.342 120.949 161.697 120.789C162.053 120.625 162.451 120.543 162.893 120.543C163.338 120.543 163.738 120.625 164.094 120.789C164.453 120.949 164.758 121.176 165.008 121.469C165.262 121.758 165.455 122.1 165.588 122.494C165.721 122.885 165.787 123.309 165.787 123.766V123.9C165.787 124.357 165.721 124.781 165.588 125.172C165.455 125.562 165.262 125.904 165.008 126.197C164.758 126.486 164.455 126.713 164.1 126.877C163.748 127.037 163.35 127.117 162.904 127.117C162.459 127.117 162.059 127.037 161.703 126.877C161.348 126.713 161.043 126.486 160.789 126.197C160.539 125.904 160.348 125.562 160.215 125.172C160.082 124.781 160.016 124.357 160.016 123.9ZM161.1 123.766V123.9C161.1 124.217 161.137 124.516 161.211 124.797C161.285 125.074 161.396 125.32 161.545 125.535C161.697 125.75 161.887 125.92 162.113 126.045C162.34 126.166 162.604 126.227 162.904 126.227C163.201 126.227 163.461 126.166 163.684 126.045C163.91 125.92 164.098 125.75 164.246 125.535C164.395 125.32 164.506 125.074 164.58 124.797C164.658 124.516 164.697 124.217 164.697 123.9V123.766C164.697 123.453 164.658 123.158 164.58 122.881C164.506 122.6 164.393 122.352 164.24 122.137C164.092 121.918 163.904 121.746 163.678 121.621C163.455 121.496 163.193 121.434 162.893 121.434C162.596 121.434 162.334 121.496 162.107 121.621C161.885 121.746 161.697 121.918 161.545 122.137C161.396 122.352 161.285 122.6 161.211 122.881C161.137 123.158 161.1 123.453 161.1 123.766ZM169.684 126.227C169.941 126.227 170.18 126.174 170.398 126.068C170.617 125.963 170.797 125.818 170.938 125.635C171.078 125.447 171.158 125.234 171.178 124.996H172.209C172.189 125.371 172.062 125.721 171.828 126.045C171.598 126.365 171.295 126.625 170.92 126.824C170.545 127.02 170.133 127.117 169.684 127.117C169.207 127.117 168.791 127.033 168.436 126.865C168.084 126.697 167.791 126.467 167.557 126.174C167.326 125.881 167.152 125.545 167.035 125.166C166.922 124.783 166.865 124.379 166.865 123.953V123.707C166.865 123.281 166.922 122.879 167.035 122.5C167.152 122.117 167.326 121.779 167.557 121.486C167.791 121.193 168.084 120.963 168.436 120.795C168.791 120.627 169.207 120.543 169.684 120.543C170.18 120.543 170.613 120.645 170.984 120.848C171.355 121.047 171.646 121.32 171.857 121.668C172.072 122.012 172.189 122.402 172.209 122.84H171.178C171.158 122.578 171.084 122.342 170.955 122.131C170.83 121.92 170.658 121.752 170.439 121.627C170.225 121.498 169.973 121.434 169.684 121.434C169.352 121.434 169.072 121.5 168.846 121.633C168.623 121.762 168.445 121.938 168.312 122.16C168.184 122.379 168.09 122.623 168.031 122.893C167.977 123.158 167.949 123.43 167.949 123.707V123.953C167.949 124.23 167.977 124.504 168.031 124.773C168.086 125.043 168.178 125.287 168.307 125.506C168.439 125.725 168.617 125.9 168.84 126.033C169.066 126.162 169.348 126.227 169.684 126.227ZM174.605 120.66V127H173.521V120.66H174.605ZM178.766 120.66L175.76 124.293H174.242L174.078 123.344H175.32L177.447 120.66H178.766ZM177.6 127L175.268 124.129L175.965 123.344L178.977 127H177.6ZM179.504 123.9V123.766C179.504 123.309 179.57 122.885 179.703 122.494C179.836 122.1 180.027 121.758 180.277 121.469C180.527 121.176 180.83 120.949 181.186 120.789C181.541 120.625 181.939 120.543 182.381 120.543C182.826 120.543 183.227 120.625 183.582 120.789C183.941 120.949 184.246 121.176 184.496 121.469C184.75 121.758 184.943 122.1 185.076 122.494C185.209 122.885 185.275 123.309 185.275 123.766V123.9C185.275 124.357 185.209 124.781 185.076 125.172C184.943 125.562 184.75 125.904 184.496 126.197C184.246 126.486 183.943 126.713 183.588 126.877C183.236 127.037 182.838 127.117 182.393 127.117C181.947 127.117 181.547 127.037 181.191 126.877C180.836 126.713 180.531 126.486 180.277 126.197C180.027 125.904 179.836 125.562 179.703 125.172C179.57 124.781 179.504 124.357 179.504 123.9ZM180.588 123.766V123.9C180.588 124.217 180.625 124.516 180.699 124.797C180.773 125.074 180.885 125.32 181.033 125.535C181.186 125.75 181.375 125.92 181.602 126.045C181.828 126.166 182.092 126.227 182.393 126.227C182.689 126.227 182.949 126.166 183.172 126.045C183.398 125.92 183.586 125.75 183.734 125.535C183.883 125.32 183.994 125.074 184.068 124.797C184.146 124.516 184.186 124.217 184.186 123.9V123.766C184.186 123.453 184.146 123.158 184.068 122.881C183.994 122.6 183.881 122.352 183.729 122.137C183.58 121.918 183.393 121.746 183.166 121.621C182.943 121.496 182.682 121.434 182.381 121.434C182.084 121.434 181.822 121.496 181.596 121.621C181.373 121.746 181.186 121.918 181.033 122.137C180.885 122.352 180.773 122.6 180.699 122.881C180.625 123.158 180.588 123.453 180.588 123.766ZM189.611 124.211H187.531L187.52 123.344H189.219C189.555 123.344 189.834 123.311 190.057 123.244C190.283 123.178 190.453 123.078 190.566 122.945C190.68 122.812 190.736 122.648 190.736 122.453C190.736 122.301 190.703 122.168 190.637 122.055C190.574 121.938 190.479 121.842 190.35 121.768C190.221 121.689 190.061 121.633 189.869 121.598C189.682 121.559 189.461 121.539 189.207 121.539H187.818V127H186.734V120.66H189.207C189.609 120.66 189.971 120.695 190.291 120.766C190.615 120.836 190.891 120.943 191.117 121.088C191.348 121.229 191.523 121.408 191.645 121.627C191.766 121.846 191.826 122.104 191.826 122.4C191.826 122.592 191.787 122.773 191.709 122.945C191.631 123.117 191.516 123.27 191.363 123.402C191.211 123.535 191.023 123.645 190.801 123.73C190.578 123.812 190.322 123.865 190.033 123.889L189.611 124.211ZM189.611 127H187.139L187.678 126.121H189.611C189.912 126.121 190.162 126.084 190.361 126.01C190.561 125.932 190.709 125.822 190.807 125.682C190.908 125.537 190.959 125.365 190.959 125.166C190.959 124.967 190.908 124.797 190.807 124.656C190.709 124.512 190.561 124.402 190.361 124.328C190.162 124.25 189.912 124.211 189.611 124.211H187.965L187.977 123.344H190.033L190.426 123.672C190.773 123.699 191.068 123.785 191.311 123.93C191.553 124.074 191.736 124.258 191.861 124.48C191.986 124.699 192.049 124.938 192.049 125.195C192.049 125.492 191.992 125.754 191.879 125.98C191.77 126.207 191.609 126.396 191.398 126.549C191.188 126.697 190.932 126.811 190.631 126.889C190.33 126.963 189.99 127 189.611 127ZM196.039 126.227C196.297 126.227 196.535 126.174 196.754 126.068C196.973 125.963 197.152 125.818 197.293 125.635C197.434 125.447 197.514 125.234 197.533 124.996H198.564C198.545 125.371 198.418 125.721 198.184 126.045C197.953 126.365 197.65 126.625 197.275 126.824C196.9 127.02 196.488 127.117 196.039 127.117C195.562 127.117 195.146 127.033 194.791 126.865C194.439 126.697 194.146 126.467 193.912 126.174C193.682 125.881 193.508 125.545 193.391 125.166C193.277 124.783 193.221 124.379 193.221 123.953V123.707C193.221 123.281 193.277 122.879 193.391 122.5C193.508 122.117 193.682 121.779 193.912 121.486C194.146 121.193 194.439 120.963 194.791 120.795C195.146 120.627 195.562 120.543 196.039 120.543C196.535 120.543 196.969 120.645 197.34 120.848C197.711 121.047 198.002 121.32 198.213 121.668C198.428 122.012 198.545 122.402 198.564 122.84H197.533C197.514 122.578 197.439 122.342 197.311 122.131C197.186 121.92 197.014 121.752 196.795 121.627C196.58 121.498 196.328 121.434 196.039 121.434C195.707 121.434 195.428 121.5 195.201 121.633C194.979 121.762 194.801 121.938 194.668 122.16C194.539 122.379 194.445 122.623 194.387 122.893C194.332 123.158 194.305 123.43 194.305 123.707V123.953C194.305 124.23 194.332 124.504 194.387 124.773C194.441 125.043 194.533 125.287 194.662 125.506C194.795 125.725 194.973 125.9 195.195 126.033C195.422 126.162 195.703 126.227 196.039 126.227ZM200.961 120.66V127H199.877V120.66H200.961ZM205.121 120.66L202.115 124.293H200.598L200.434 123.344H201.676L203.803 120.66H205.121ZM203.955 127L201.623 124.129L202.32 123.344L205.332 127H203.955ZM207.447 125.283L210.371 120.66H211.461V127H210.371V122.377L207.447 127H206.369V120.66H207.447V125.283ZM214.373 125.283L217.297 120.66H218.387V127H217.297V122.377L214.373 127H213.295V120.66H214.373V125.283ZM216.705 118.363H217.584C217.584 118.668 217.514 118.939 217.373 119.178C217.232 119.412 217.031 119.596 216.77 119.729C216.508 119.861 216.197 119.928 215.838 119.928C215.295 119.928 214.865 119.783 214.549 119.494C214.236 119.201 214.08 118.824 214.08 118.363H214.959C214.959 118.594 215.025 118.797 215.158 118.973C215.291 119.148 215.518 119.236 215.838 119.236C216.15 119.236 216.373 119.148 216.506 118.973C216.639 118.797 216.705 118.594 216.705 118.363Z" fill="#0F1629"/>
<path d="M142.33 161.406L144.398 156.18H145.59L142.824 162.695C142.745 162.877 142.658 163.055 142.561 163.227C142.464 163.395 142.346 163.545 142.207 163.678C142.067 163.81 141.893 163.916 141.686 163.995C141.481 164.073 141.227 164.113 140.923 164.113C140.837 164.113 140.735 164.107 140.617 164.097C140.499 164.09 140.422 164.081 140.386 164.07L140.418 163.243C140.457 163.25 140.534 163.257 140.649 163.264C140.764 163.268 140.848 163.27 140.901 163.27C141.105 163.27 141.267 163.228 141.385 163.146C141.503 163.064 141.598 162.96 141.669 162.834C141.745 162.706 141.813 162.575 141.874 162.442L142.33 161.406ZM140.574 156.18L142.749 161.051L143.007 162.013L142.137 162.077L139.414 156.18H140.574ZM150.183 158.188V159.01H147.374V158.188H150.183ZM151.058 158.188V164H150.064V158.188H151.058ZM147.132 158.188H148.131L147.98 160.992C147.955 161.425 147.914 161.809 147.857 162.142C147.803 162.471 147.728 162.754 147.631 162.99C147.538 163.227 147.42 163.42 147.277 163.57C147.137 163.717 146.969 163.826 146.772 163.898C146.575 163.966 146.348 164 146.09 164H145.778V163.125L145.993 163.108C146.147 163.098 146.278 163.062 146.385 163.001C146.496 162.94 146.589 162.851 146.665 162.732C146.74 162.611 146.801 162.455 146.847 162.265C146.897 162.075 146.935 161.85 146.96 161.588C146.989 161.327 147.01 161.023 147.024 160.675L147.132 158.188ZM153.733 162.426L156.413 158.188H157.412V164H156.413V159.762L153.733 164H152.745V158.188H153.733V162.426ZM159.093 164V158.188H160.087V163.184H162.762V158.188H163.761V164H159.093ZM164.448 163.184L164.352 165.724H163.465V164H162.708V163.184H164.448ZM168.955 163.006V160.015C168.955 159.785 168.908 159.587 168.815 159.418C168.725 159.247 168.589 159.114 168.407 159.021C168.224 158.928 167.999 158.881 167.73 158.881C167.479 158.881 167.259 158.924 167.069 159.01C166.883 159.096 166.736 159.209 166.629 159.349C166.525 159.488 166.473 159.639 166.473 159.8H165.479C165.479 159.592 165.533 159.386 165.641 159.182C165.748 158.978 165.902 158.794 166.103 158.629C166.307 158.461 166.55 158.328 166.833 158.231C167.119 158.131 167.438 158.081 167.789 158.081C168.212 158.081 168.584 158.153 168.906 158.296C169.232 158.439 169.486 158.656 169.669 158.946C169.855 159.232 169.948 159.592 169.948 160.025V162.732C169.948 162.926 169.964 163.132 169.997 163.35C170.032 163.569 170.084 163.757 170.152 163.914V164H169.116C169.066 163.885 169.026 163.733 168.998 163.543C168.969 163.35 168.955 163.171 168.955 163.006ZM169.126 160.477L169.137 161.175H168.133C167.85 161.175 167.597 161.198 167.375 161.245C167.153 161.288 166.967 161.354 166.817 161.443C166.667 161.533 166.552 161.646 166.473 161.782C166.394 161.914 166.355 162.07 166.355 162.249C166.355 162.432 166.396 162.598 166.479 162.749C166.561 162.899 166.684 163.019 166.849 163.108C167.017 163.194 167.223 163.237 167.467 163.237C167.771 163.237 168.04 163.173 168.272 163.044C168.505 162.915 168.69 162.757 168.826 162.571C168.965 162.385 169.041 162.204 169.051 162.029L169.476 162.507C169.451 162.657 169.382 162.824 169.271 163.006C169.16 163.189 169.012 163.364 168.826 163.533C168.643 163.697 168.425 163.835 168.17 163.946C167.92 164.054 167.637 164.107 167.322 164.107C166.928 164.107 166.582 164.03 166.285 163.876C165.992 163.722 165.762 163.517 165.598 163.259C165.437 162.997 165.356 162.706 165.356 162.383C165.356 162.072 165.417 161.798 165.539 161.562C165.66 161.322 165.836 161.123 166.065 160.965C166.294 160.804 166.57 160.682 166.892 160.6C167.214 160.518 167.574 160.477 167.972 160.477H169.126Z" fill="#94A3B8"/>
<rect x="139" y="170" width="162" height="34" rx="7" fill="#F1F5F9"/>
<path d="M151.08 186.939L150.213 186.717L150.641 182.469H155.018V183.471H151.561L151.303 185.791C151.459 185.701 151.656 185.617 151.895 185.539C152.137 185.461 152.414 185.422 152.727 185.422C153.121 185.422 153.475 185.49 153.787 185.627C154.1 185.76 154.365 185.951 154.584 186.201C154.807 186.451 154.977 186.752 155.094 187.104C155.211 187.455 155.27 187.848 155.27 188.281C155.27 188.691 155.213 189.068 155.1 189.412C154.99 189.756 154.824 190.057 154.602 190.314C154.379 190.568 154.098 190.766 153.758 190.906C153.422 191.047 153.025 191.117 152.568 191.117C152.225 191.117 151.898 191.07 151.59 190.977C151.285 190.879 151.012 190.732 150.77 190.537C150.531 190.338 150.336 190.092 150.184 189.799C150.035 189.502 149.941 189.154 149.902 188.756H150.934C150.98 189.076 151.074 189.346 151.215 189.564C151.355 189.783 151.539 189.949 151.766 190.062C151.996 190.172 152.264 190.227 152.568 190.227C152.826 190.227 153.055 190.182 153.254 190.092C153.453 190.002 153.621 189.873 153.758 189.705C153.895 189.537 153.998 189.334 154.068 189.096C154.143 188.857 154.18 188.59 154.18 188.293C154.18 188.023 154.143 187.773 154.068 187.543C153.994 187.312 153.883 187.111 153.734 186.939C153.59 186.768 153.412 186.635 153.201 186.541C152.99 186.443 152.748 186.395 152.475 186.395C152.111 186.395 151.836 186.443 151.648 186.541C151.465 186.639 151.275 186.771 151.08 186.939ZM161.814 186.055V187.355C161.814 188.055 161.752 188.645 161.627 189.125C161.502 189.605 161.322 189.992 161.088 190.285C160.854 190.578 160.57 190.791 160.238 190.924C159.91 191.053 159.539 191.117 159.125 191.117C158.797 191.117 158.494 191.076 158.217 190.994C157.939 190.912 157.689 190.781 157.467 190.602C157.248 190.418 157.061 190.18 156.904 189.887C156.748 189.594 156.629 189.238 156.547 188.82C156.465 188.402 156.424 187.914 156.424 187.355V186.055C156.424 185.355 156.486 184.77 156.611 184.297C156.74 183.824 156.922 183.445 157.156 183.16C157.391 182.871 157.672 182.664 158 182.539C158.332 182.414 158.703 182.352 159.113 182.352C159.445 182.352 159.75 182.393 160.027 182.475C160.309 182.553 160.559 182.68 160.777 182.855C160.996 183.027 161.182 183.258 161.334 183.547C161.49 183.832 161.609 184.182 161.691 184.596C161.773 185.01 161.814 185.496 161.814 186.055ZM160.725 187.531V185.873C160.725 185.49 160.701 185.154 160.654 184.865C160.611 184.572 160.547 184.322 160.461 184.115C160.375 183.908 160.266 183.74 160.133 183.611C160.004 183.482 159.854 183.389 159.682 183.33C159.514 183.268 159.324 183.236 159.113 183.236C158.855 183.236 158.627 183.285 158.428 183.383C158.229 183.477 158.061 183.627 157.924 183.834C157.791 184.041 157.689 184.312 157.619 184.648C157.549 184.984 157.514 185.393 157.514 185.873V187.531C157.514 187.914 157.535 188.252 157.578 188.545C157.625 188.838 157.693 189.092 157.783 189.307C157.873 189.518 157.982 189.691 158.111 189.828C158.24 189.965 158.389 190.066 158.557 190.133C158.729 190.195 158.918 190.227 159.125 190.227C159.391 190.227 159.623 190.176 159.822 190.074C160.021 189.973 160.188 189.814 160.32 189.6C160.457 189.381 160.559 189.102 160.625 188.762C160.691 188.418 160.725 188.008 160.725 187.531ZM170.539 184.66V185.557H167.475V184.66H170.539ZM171.494 184.66V191H170.41V184.66H171.494ZM167.211 184.66H168.301L168.137 187.719C168.109 188.191 168.064 188.609 168.002 188.973C167.943 189.332 167.861 189.641 167.756 189.898C167.654 190.156 167.525 190.367 167.369 190.531C167.217 190.691 167.033 190.811 166.818 190.889C166.604 190.963 166.355 191 166.074 191H165.734V190.045L165.969 190.027C166.137 190.016 166.279 189.977 166.396 189.91C166.518 189.844 166.619 189.746 166.701 189.617C166.783 189.484 166.85 189.314 166.9 189.107C166.955 188.9 166.996 188.654 167.023 188.369C167.055 188.084 167.078 187.752 167.094 187.373L167.211 184.66ZM175.871 191.117C175.43 191.117 175.029 191.043 174.67 190.895C174.314 190.742 174.008 190.529 173.75 190.256C173.496 189.982 173.301 189.658 173.164 189.283C173.027 188.908 172.959 188.498 172.959 188.053V187.807C172.959 187.291 173.035 186.832 173.188 186.43C173.34 186.023 173.547 185.68 173.809 185.398C174.07 185.117 174.367 184.904 174.699 184.76C175.031 184.615 175.375 184.543 175.73 184.543C176.184 184.543 176.574 184.621 176.902 184.777C177.234 184.934 177.506 185.152 177.717 185.434C177.928 185.711 178.084 186.039 178.186 186.418C178.287 186.793 178.338 187.203 178.338 187.648V188.135H173.604V187.25H177.254V187.168C177.238 186.887 177.18 186.613 177.078 186.348C176.98 186.082 176.824 185.863 176.609 185.691C176.395 185.52 176.102 185.434 175.73 185.434C175.484 185.434 175.258 185.486 175.051 185.592C174.844 185.693 174.666 185.846 174.518 186.049C174.369 186.252 174.254 186.5 174.172 186.793C174.09 187.086 174.049 187.424 174.049 187.807V188.053C174.049 188.354 174.09 188.637 174.172 188.902C174.258 189.164 174.381 189.395 174.541 189.594C174.705 189.793 174.902 189.949 175.133 190.062C175.367 190.176 175.633 190.232 175.93 190.232C176.312 190.232 176.637 190.154 176.902 189.998C177.168 189.842 177.4 189.633 177.6 189.371L178.256 189.893C178.119 190.1 177.945 190.297 177.734 190.484C177.523 190.672 177.264 190.824 176.955 190.941C176.65 191.059 176.289 191.117 175.871 191.117ZM182.117 184.66V191H181.027V184.66H182.117ZM184.244 184.66V185.539H178.941V184.66H184.244ZM195.02 186.465V187.004C195.02 187.645 194.939 188.219 194.779 188.727C194.619 189.234 194.389 189.666 194.088 190.021C193.787 190.377 193.426 190.648 193.004 190.836C192.586 191.023 192.117 191.117 191.598 191.117C191.094 191.117 190.631 191.023 190.209 190.836C189.791 190.648 189.428 190.377 189.119 190.021C188.814 189.666 188.578 189.234 188.41 188.727C188.242 188.219 188.158 187.645 188.158 187.004V186.465C188.158 185.824 188.24 185.252 188.404 184.748C188.572 184.24 188.809 183.809 189.113 183.453C189.418 183.094 189.779 182.82 190.197 182.633C190.619 182.445 191.082 182.352 191.586 182.352C192.105 182.352 192.574 182.445 192.992 182.633C193.414 182.82 193.775 183.094 194.076 183.453C194.381 183.809 194.613 184.24 194.773 184.748C194.938 185.252 195.02 185.824 195.02 186.465ZM193.9 187.004V186.453C193.9 185.945 193.848 185.496 193.742 185.105C193.641 184.715 193.49 184.387 193.291 184.121C193.092 183.855 192.848 183.654 192.559 183.518C192.273 183.381 191.949 183.312 191.586 183.312C191.234 183.312 190.916 183.381 190.631 183.518C190.35 183.654 190.107 183.855 189.904 184.121C189.705 184.387 189.551 184.715 189.441 185.105C189.332 185.496 189.277 185.945 189.277 186.453V187.004C189.277 187.516 189.332 187.969 189.441 188.363C189.551 188.754 189.707 189.084 189.91 189.354C190.117 189.619 190.361 189.82 190.643 189.957C190.928 190.094 191.246 190.162 191.598 190.162C191.965 190.162 192.291 190.094 192.576 189.957C192.861 189.82 193.102 189.619 193.297 189.354C193.496 189.084 193.646 188.754 193.748 188.363C193.85 187.969 193.9 187.516 193.9 187.004ZM197.727 184.66V191H196.643V184.66H197.727ZM201.887 184.66L198.881 188.293H197.363L197.199 187.344H198.441L200.568 184.66H201.887ZM200.721 191L198.389 188.129L199.086 187.344L202.098 191H200.721ZM205.625 184.66V191H204.535V184.66H205.625ZM207.752 184.66V185.539H202.449V184.66H207.752ZM210.102 187.977H211.273L209.439 191H208.268L210.102 187.977ZM211.01 184.66H213.658V191H212.574V185.539H211.01C210.701 185.539 210.449 185.592 210.254 185.697C210.059 185.799 209.916 185.932 209.826 186.096C209.736 186.26 209.691 186.43 209.691 186.605C209.691 186.777 209.732 186.943 209.814 187.104C209.896 187.26 210.025 187.389 210.201 187.49C210.377 187.592 210.604 187.643 210.881 187.643H212.867V188.533H210.881C210.518 188.533 210.195 188.484 209.914 188.387C209.633 188.289 209.395 188.154 209.199 187.982C209.004 187.807 208.855 187.602 208.754 187.367C208.652 187.129 208.602 186.871 208.602 186.594C208.602 186.316 208.654 186.061 208.76 185.826C208.869 185.592 209.025 185.387 209.229 185.211C209.436 185.035 209.688 184.9 209.984 184.807C210.285 184.709 210.627 184.66 211.01 184.66ZM219.471 181.9H220.361C220.361 182.283 220.303 182.588 220.186 182.814C220.068 183.037 219.908 183.209 219.705 183.33C219.506 183.451 219.279 183.543 219.025 183.605C218.775 183.668 218.516 183.729 218.246 183.787C217.91 183.857 217.598 183.969 217.309 184.121C217.023 184.27 216.777 184.48 216.57 184.754C216.367 185.027 216.217 185.383 216.119 185.82C216.025 186.258 216 186.799 216.043 187.443V187.982H215.152V187.443C215.152 186.721 215.221 186.09 215.357 185.551C215.498 185.012 215.695 184.557 215.949 184.186C216.203 183.814 216.504 183.52 216.852 183.301C217.203 183.082 217.59 182.932 218.012 182.85C218.316 182.791 218.578 182.729 218.797 182.662C219.016 182.592 219.182 182.498 219.295 182.381C219.412 182.264 219.471 182.104 219.471 181.9ZM218.188 185.023C218.602 185.023 218.971 185.096 219.295 185.24C219.619 185.385 219.895 185.586 220.121 185.844C220.348 186.102 220.52 186.406 220.637 186.758C220.758 187.105 220.818 187.484 220.818 187.895V188.023C220.818 188.465 220.754 188.875 220.625 189.254C220.5 189.629 220.314 189.957 220.068 190.238C219.826 190.516 219.529 190.732 219.178 190.889C218.83 191.045 218.434 191.123 217.988 191.123C217.543 191.123 217.145 191.045 216.793 190.889C216.445 190.732 216.148 190.516 215.902 190.238C215.656 189.957 215.469 189.629 215.34 189.254C215.215 188.875 215.152 188.465 215.152 188.023V187.895C215.152 187.797 215.17 187.701 215.205 187.607C215.24 187.514 215.283 187.418 215.334 187.32C215.389 187.223 215.438 187.119 215.48 187.01C215.625 186.658 215.822 186.332 216.072 186.031C216.326 185.73 216.629 185.488 216.98 185.305C217.336 185.117 217.738 185.023 218.188 185.023ZM217.977 185.908C217.578 185.908 217.25 186 216.992 186.184C216.738 186.367 216.549 186.611 216.424 186.916C216.299 187.217 216.236 187.543 216.236 187.895V188.023C216.236 188.32 216.271 188.602 216.342 188.867C216.412 189.133 216.518 189.369 216.658 189.576C216.803 189.779 216.984 189.939 217.203 190.057C217.426 190.174 217.688 190.232 217.988 190.232C218.289 190.232 218.549 190.174 218.768 190.057C218.986 189.939 219.166 189.779 219.307 189.576C219.447 189.369 219.553 189.133 219.623 188.867C219.693 188.602 219.729 188.32 219.729 188.023V187.895C219.729 187.629 219.693 187.377 219.623 187.139C219.553 186.9 219.445 186.689 219.301 186.506C219.16 186.322 218.979 186.178 218.756 186.072C218.537 185.963 218.277 185.908 217.977 185.908ZM223.027 185.879V193.438H221.938V184.66H222.934L223.027 185.879ZM227.299 187.777V187.9C227.299 188.361 227.244 188.789 227.135 189.184C227.025 189.574 226.865 189.914 226.654 190.203C226.447 190.492 226.191 190.717 225.887 190.877C225.582 191.037 225.232 191.117 224.838 191.117C224.436 191.117 224.08 191.051 223.771 190.918C223.463 190.785 223.201 190.592 222.986 190.338C222.771 190.084 222.6 189.779 222.471 189.424C222.346 189.068 222.26 188.668 222.213 188.223V187.566C222.26 187.098 222.348 186.678 222.477 186.307C222.605 185.936 222.775 185.619 222.986 185.357C223.201 185.092 223.461 184.891 223.766 184.754C224.07 184.613 224.422 184.543 224.82 184.543C225.219 184.543 225.572 184.621 225.881 184.777C226.189 184.93 226.449 185.148 226.66 185.434C226.871 185.719 227.029 186.061 227.135 186.459C227.244 186.854 227.299 187.293 227.299 187.777ZM226.209 187.9V187.777C226.209 187.461 226.176 187.164 226.109 186.887C226.043 186.605 225.939 186.359 225.799 186.148C225.662 185.934 225.486 185.766 225.271 185.645C225.057 185.52 224.801 185.457 224.504 185.457C224.23 185.457 223.992 185.504 223.789 185.598C223.59 185.691 223.42 185.818 223.279 185.979C223.139 186.135 223.023 186.314 222.934 186.518C222.848 186.717 222.783 186.924 222.74 187.139V188.656C222.818 188.93 222.928 189.188 223.068 189.43C223.209 189.668 223.396 189.861 223.631 190.01C223.865 190.154 224.16 190.227 224.516 190.227C224.809 190.227 225.061 190.166 225.271 190.045C225.486 189.92 225.662 189.75 225.799 189.535C225.939 189.32 226.043 189.074 226.109 188.797C226.176 188.516 226.209 188.217 226.209 187.9ZM229.965 187.977H231.137L229.303 191H228.131L229.965 187.977ZM230.873 184.66H233.521V191H232.438V185.539H230.873C230.564 185.539 230.312 185.592 230.117 185.697C229.922 185.799 229.779 185.932 229.689 186.096C229.6 186.26 229.555 186.43 229.555 186.605C229.555 186.777 229.596 186.943 229.678 187.104C229.76 187.26 229.889 187.389 230.064 187.49C230.24 187.592 230.467 187.643 230.744 187.643H232.73V188.533H230.744C230.381 188.533 230.059 188.484 229.777 188.387C229.496 188.289 229.258 188.154 229.062 187.982C228.867 187.807 228.719 187.602 228.617 187.367C228.516 187.129 228.465 186.871 228.465 186.594C228.465 186.316 228.518 186.061 228.623 185.826C228.732 185.592 228.889 185.387 229.092 185.211C229.299 185.035 229.551 184.9 229.848 184.807C230.148 184.709 230.49 184.66 230.873 184.66Z" fill="#0F1629"/>
<path d="M146.058 227.157V228H140.139V227.157H146.058ZM140.305 227.157V229.923H139.279L139.274 227.157H140.305ZM146.96 227.157L146.949 229.917H145.923V227.157H146.96ZM145.042 220.18V221.028H141.616V220.18H145.042ZM145.934 220.18V228H144.903V220.18H145.934ZM141.261 220.18H142.298L142.137 223.327C142.115 223.8 142.07 224.237 142.002 224.638C141.934 225.035 141.85 225.399 141.75 225.728C141.65 226.057 141.535 226.353 141.406 226.614C141.277 226.872 141.139 227.096 140.993 227.286C140.846 227.472 140.692 227.626 140.531 227.748C140.373 227.866 140.214 227.95 140.053 228H139.58V227.157H139.913C140.006 227.056 140.112 226.911 140.23 226.722C140.352 226.532 140.472 226.287 140.59 225.986C140.712 225.681 140.817 225.311 140.907 224.874C141 224.437 141.062 223.922 141.095 223.327L141.261 220.18ZM147.766 225.159V225.035C147.766 224.616 147.826 224.228 147.948 223.87C148.07 223.508 148.245 223.195 148.475 222.93C148.704 222.661 148.981 222.453 149.307 222.307C149.633 222.156 149.998 222.081 150.403 222.081C150.811 222.081 151.178 222.156 151.504 222.307C151.833 222.453 152.113 222.661 152.342 222.93C152.575 223.195 152.752 223.508 152.874 223.87C152.995 224.228 153.056 224.616 153.056 225.035V225.159C153.056 225.578 152.995 225.966 152.874 226.324C152.752 226.682 152.575 226.996 152.342 227.264C152.113 227.529 151.835 227.737 151.509 227.887C151.187 228.034 150.822 228.107 150.414 228.107C150.005 228.107 149.638 228.034 149.312 227.887C148.987 227.737 148.707 227.529 148.475 227.264C148.245 226.996 148.07 226.682 147.948 226.324C147.826 225.966 147.766 225.578 147.766 225.159ZM148.759 225.035V225.159C148.759 225.449 148.793 225.723 148.861 225.98C148.929 226.235 149.031 226.46 149.167 226.657C149.307 226.854 149.481 227.01 149.688 227.125C149.896 227.236 150.138 227.291 150.414 227.291C150.686 227.291 150.924 227.236 151.128 227.125C151.336 227.01 151.507 226.854 151.644 226.657C151.78 226.46 151.882 226.235 151.95 225.98C152.021 225.723 152.057 225.449 152.057 225.159V225.035C152.057 224.749 152.021 224.478 151.95 224.224C151.882 223.966 151.778 223.739 151.638 223.542C151.502 223.341 151.33 223.184 151.123 223.069C150.918 222.955 150.679 222.897 150.403 222.897C150.131 222.897 149.891 222.955 149.683 223.069C149.479 223.184 149.307 223.341 149.167 223.542C149.031 223.739 148.929 223.966 148.861 224.224C148.793 224.478 148.759 224.749 148.759 225.035ZM157.643 226.679L159.62 222.188H160.576L157.987 228H157.299L154.721 222.188H155.677L157.643 226.679ZM155.387 222.188V228H154.394V222.188H155.387ZM159.867 228V222.188H160.866V228H159.867Z" fill="#94A3B8"/>
<rect x="139" y="234" width="162" height="34" rx="7" fill="#F1F5F9"/>
<path d="M153.271 246.422V255H152.188V247.775L150.002 248.572V247.594L153.102 246.422H153.271ZM160.73 248.66V255H159.646V248.66H160.73ZM164.891 248.66L161.885 252.293H160.367L160.203 251.344H161.445L163.572 248.66H164.891ZM163.725 255L161.393 252.129L162.09 251.344L165.102 255H163.725ZM165.629 251.9V251.766C165.629 251.309 165.695 250.885 165.828 250.494C165.961 250.1 166.152 249.758 166.402 249.469C166.652 249.176 166.955 248.949 167.311 248.789C167.666 248.625 168.064 248.543 168.506 248.543C168.951 248.543 169.352 248.625 169.707 248.789C170.066 248.949 170.371 249.176 170.621 249.469C170.875 249.758 171.068 250.1 171.201 250.494C171.334 250.885 171.4 251.309 171.4 251.766V251.9C171.4 252.357 171.334 252.781 171.201 253.172C171.068 253.562 170.875 253.904 170.621 254.197C170.371 254.486 170.068 254.713 169.713 254.877C169.361 255.037 168.963 255.117 168.518 255.117C168.072 255.117 167.672 255.037 167.316 254.877C166.961 254.713 166.656 254.486 166.402 254.197C166.152 253.904 165.961 253.562 165.828 253.172C165.695 252.781 165.629 252.357 165.629 251.9ZM166.713 251.766V251.9C166.713 252.217 166.75 252.516 166.824 252.797C166.898 253.074 167.01 253.32 167.158 253.535C167.311 253.75 167.5 253.92 167.727 254.045C167.953 254.166 168.217 254.227 168.518 254.227C168.814 254.227 169.074 254.166 169.297 254.045C169.523 253.92 169.711 253.75 169.859 253.535C170.008 253.32 170.119 253.074 170.193 252.797C170.271 252.516 170.311 252.217 170.311 251.9V251.766C170.311 251.453 170.271 251.158 170.193 250.881C170.119 250.6 170.006 250.352 169.854 250.137C169.705 249.918 169.518 249.746 169.291 249.621C169.068 249.496 168.807 249.434 168.506 249.434C168.209 249.434 167.947 249.496 167.721 249.621C167.498 249.746 167.311 249.918 167.158 250.137C167.01 250.352 166.898 250.6 166.824 250.881C166.75 251.158 166.713 251.453 166.713 251.766ZM173.844 249.879V257.438H172.754V248.66H173.75L173.844 249.879ZM178.115 251.777V251.9C178.115 252.361 178.061 252.789 177.951 253.184C177.842 253.574 177.682 253.914 177.471 254.203C177.264 254.492 177.008 254.717 176.703 254.877C176.398 255.037 176.049 255.117 175.654 255.117C175.252 255.117 174.896 255.051 174.588 254.918C174.279 254.785 174.018 254.592 173.803 254.338C173.588 254.084 173.416 253.779 173.287 253.424C173.162 253.068 173.076 252.668 173.029 252.223V251.566C173.076 251.098 173.164 250.678 173.293 250.307C173.422 249.936 173.592 249.619 173.803 249.357C174.018 249.092 174.277 248.891 174.582 248.754C174.887 248.613 175.238 248.543 175.637 248.543C176.035 248.543 176.389 248.621 176.697 248.777C177.006 248.93 177.266 249.148 177.477 249.434C177.688 249.719 177.846 250.061 177.951 250.459C178.061 250.854 178.115 251.293 178.115 251.777ZM177.025 251.9V251.777C177.025 251.461 176.992 251.164 176.926 250.887C176.859 250.605 176.756 250.359 176.615 250.148C176.479 249.934 176.303 249.766 176.088 249.645C175.873 249.52 175.617 249.457 175.32 249.457C175.047 249.457 174.809 249.504 174.605 249.598C174.406 249.691 174.236 249.818 174.096 249.979C173.955 250.135 173.84 250.314 173.75 250.518C173.664 250.717 173.6 250.924 173.557 251.139V252.656C173.635 252.93 173.744 253.188 173.885 253.43C174.025 253.668 174.213 253.861 174.447 254.01C174.682 254.154 174.977 254.227 175.332 254.227C175.625 254.227 175.877 254.166 176.088 254.045C176.303 253.92 176.479 253.75 176.615 253.535C176.756 253.32 176.859 253.074 176.926 252.797C176.992 252.516 177.025 252.217 177.025 251.9ZM183.723 248.66V249.557H180.518V248.66H183.723ZM180.676 248.66V255H179.592V248.66H180.676ZM184.684 248.66V255H183.594V248.66H184.684ZM188.205 254.344L189.969 248.66H191.129L188.586 255.979C188.527 256.135 188.449 256.303 188.352 256.482C188.258 256.666 188.137 256.84 187.988 257.004C187.84 257.168 187.66 257.301 187.449 257.402C187.242 257.508 186.994 257.561 186.705 257.561C186.619 257.561 186.51 257.549 186.377 257.525C186.244 257.502 186.15 257.482 186.096 257.467L186.09 256.588C186.121 256.592 186.17 256.596 186.236 256.6C186.307 256.607 186.355 256.611 186.383 256.611C186.629 256.611 186.838 256.578 187.01 256.512C187.182 256.449 187.326 256.342 187.443 256.189C187.564 256.041 187.668 255.836 187.754 255.574L188.205 254.344ZM186.91 248.66L188.557 253.582L188.838 254.725L188.059 255.123L185.727 248.66H186.91ZM194.562 254.227C194.82 254.227 195.059 254.174 195.277 254.068C195.496 253.963 195.676 253.818 195.816 253.635C195.957 253.447 196.037 253.234 196.057 252.996H197.088C197.068 253.371 196.941 253.721 196.707 254.045C196.477 254.365 196.174 254.625 195.799 254.824C195.424 255.02 195.012 255.117 194.562 255.117C194.086 255.117 193.67 255.033 193.314 254.865C192.963 254.697 192.67 254.467 192.436 254.174C192.205 253.881 192.031 253.545 191.914 253.166C191.801 252.783 191.744 252.379 191.744 251.953V251.707C191.744 251.281 191.801 250.879 191.914 250.5C192.031 250.117 192.205 249.779 192.436 249.486C192.67 249.193 192.963 248.963 193.314 248.795C193.67 248.627 194.086 248.543 194.562 248.543C195.059 248.543 195.492 248.645 195.863 248.848C196.234 249.047 196.525 249.32 196.736 249.668C196.951 250.012 197.068 250.402 197.088 250.84H196.057C196.037 250.578 195.963 250.342 195.834 250.131C195.709 249.92 195.537 249.752 195.318 249.627C195.104 249.498 194.852 249.434 194.562 249.434C194.23 249.434 193.951 249.5 193.725 249.633C193.502 249.762 193.324 249.938 193.191 250.16C193.062 250.379 192.969 250.623 192.91 250.893C192.855 251.158 192.828 251.43 192.828 251.707V251.953C192.828 252.23 192.855 252.504 192.91 252.773C192.965 253.043 193.057 253.287 193.186 253.506C193.318 253.725 193.496 253.9 193.719 254.033C193.945 254.162 194.227 254.227 194.562 254.227ZM206.756 254.109V255H201.172V254.221L203.967 251.109C204.311 250.727 204.576 250.402 204.764 250.137C204.955 249.867 205.088 249.627 205.162 249.416C205.24 249.201 205.279 248.982 205.279 248.76C205.279 248.479 205.221 248.225 205.104 247.998C204.99 247.768 204.822 247.584 204.6 247.447C204.377 247.311 204.107 247.242 203.791 247.242C203.412 247.242 203.096 247.316 202.842 247.465C202.592 247.609 202.404 247.812 202.279 248.074C202.154 248.336 202.092 248.637 202.092 248.977H201.008C201.008 248.496 201.113 248.057 201.324 247.658C201.535 247.26 201.848 246.943 202.262 246.709C202.676 246.471 203.186 246.352 203.791 246.352C204.33 246.352 204.791 246.447 205.174 246.639C205.557 246.826 205.85 247.092 206.053 247.436C206.26 247.775 206.363 248.174 206.363 248.631C206.363 248.881 206.32 249.135 206.234 249.393C206.152 249.646 206.037 249.9 205.889 250.154C205.744 250.408 205.574 250.658 205.379 250.904C205.188 251.15 204.982 251.393 204.764 251.631L202.479 254.109H206.756Z" fill="#0F1629"/>
<path d="M140.993 284.18V292H139.956V284.18H140.993ZM145.811 284.18L142.416 288.482H140.579L140.418 287.623H141.798L144.527 284.18H145.811ZM144.769 292L141.831 288.348L142.411 287.44L146.036 292H144.769ZM149.554 289.443H147.647L147.637 288.648H149.194C149.502 288.648 149.758 288.618 149.962 288.557C150.17 288.496 150.326 288.405 150.43 288.283C150.534 288.161 150.585 288.011 150.585 287.832C150.585 287.692 150.555 287.571 150.494 287.467C150.437 287.359 150.349 287.272 150.231 287.204C150.113 287.132 149.966 287.08 149.791 287.048C149.619 287.012 149.416 286.994 149.184 286.994H147.911V292H146.917V286.188H149.184C149.552 286.188 149.884 286.221 150.177 286.285C150.474 286.35 150.727 286.448 150.935 286.581C151.146 286.709 151.307 286.874 151.418 287.075C151.529 287.275 151.584 287.512 151.584 287.784C151.584 287.959 151.549 288.126 151.477 288.283C151.405 288.441 151.3 288.58 151.16 288.702C151.021 288.824 150.849 288.924 150.645 289.003C150.44 289.078 150.206 289.126 149.941 289.148L149.554 289.443ZM149.554 292H147.288L147.782 291.194H149.554C149.83 291.194 150.059 291.16 150.242 291.092C150.424 291.021 150.56 290.92 150.65 290.792C150.743 290.659 150.79 290.501 150.79 290.319C150.79 290.136 150.743 289.98 150.65 289.852C150.56 289.719 150.424 289.619 150.242 289.551C150.059 289.479 149.83 289.443 149.554 289.443H148.045L148.056 288.648H149.941L150.301 288.949C150.619 288.974 150.89 289.053 151.112 289.186C151.334 289.318 151.502 289.486 151.617 289.69C151.731 289.891 151.789 290.109 151.789 290.346C151.789 290.618 151.737 290.858 151.633 291.065C151.533 291.273 151.386 291.447 151.192 291.586C150.999 291.722 150.764 291.826 150.489 291.898C150.213 291.966 149.902 292 149.554 292ZM156.547 291.006V288.015C156.547 287.785 156.501 287.587 156.408 287.418C156.318 287.247 156.182 287.114 156 287.021C155.817 286.928 155.591 286.881 155.323 286.881C155.072 286.881 154.852 286.924 154.662 287.01C154.476 287.096 154.329 287.209 154.222 287.349C154.118 287.488 154.066 287.639 154.066 287.8H153.072C153.072 287.592 153.126 287.386 153.233 287.182C153.341 286.978 153.495 286.794 153.695 286.629C153.899 286.461 154.143 286.328 154.426 286.231C154.712 286.131 155.031 286.081 155.382 286.081C155.804 286.081 156.177 286.153 156.499 286.296C156.825 286.439 157.079 286.656 157.262 286.946C157.448 287.232 157.541 287.592 157.541 288.025V290.732C157.541 290.926 157.557 291.132 157.589 291.35C157.625 291.569 157.677 291.757 157.745 291.914V292H156.708C156.658 291.885 156.619 291.733 156.59 291.543C156.562 291.35 156.547 291.171 156.547 291.006ZM156.719 288.477L156.73 289.175H155.726C155.443 289.175 155.19 289.198 154.968 289.245C154.746 289.288 154.56 289.354 154.41 289.443C154.259 289.533 154.145 289.646 154.066 289.782C153.987 289.914 153.948 290.07 153.948 290.249C153.948 290.432 153.989 290.598 154.071 290.749C154.154 290.899 154.277 291.019 154.442 291.108C154.61 291.194 154.816 291.237 155.06 291.237C155.364 291.237 155.632 291.173 155.865 291.044C156.098 290.915 156.282 290.757 156.418 290.571C156.558 290.385 156.633 290.204 156.644 290.029L157.068 290.507C157.043 290.657 156.975 290.824 156.864 291.006C156.753 291.189 156.605 291.364 156.418 291.533C156.236 291.697 156.017 291.835 155.763 291.946C155.513 292.054 155.23 292.107 154.915 292.107C154.521 292.107 154.175 292.03 153.878 291.876C153.584 291.722 153.355 291.517 153.19 291.259C153.029 290.997 152.949 290.706 152.949 290.383C152.949 290.072 153.01 289.798 153.131 289.562C153.253 289.322 153.429 289.123 153.658 288.965C153.887 288.804 154.163 288.682 154.485 288.6C154.807 288.518 155.167 288.477 155.564 288.477H156.719ZM160.098 287.306V294.234H159.099V286.188H160.012L160.098 287.306ZM164.013 289.046V289.159C164.013 289.581 163.963 289.973 163.863 290.335C163.763 290.693 163.616 291.005 163.422 291.27C163.233 291.535 162.998 291.74 162.719 291.887C162.439 292.034 162.119 292.107 161.757 292.107C161.389 292.107 161.063 292.047 160.78 291.925C160.497 291.803 160.257 291.626 160.06 291.393C159.863 291.16 159.706 290.881 159.587 290.555C159.473 290.229 159.394 289.862 159.351 289.454V288.853C159.394 288.423 159.475 288.038 159.593 287.698C159.711 287.358 159.867 287.068 160.06 286.828C160.257 286.584 160.495 286.4 160.774 286.274C161.054 286.146 161.376 286.081 161.741 286.081C162.106 286.081 162.431 286.153 162.713 286.296C162.996 286.436 163.234 286.636 163.428 286.897C163.621 287.159 163.766 287.472 163.863 287.837C163.963 288.199 164.013 288.602 164.013 289.046ZM163.014 289.159V289.046C163.014 288.756 162.984 288.484 162.923 288.229C162.862 287.972 162.767 287.746 162.638 287.553C162.513 287.356 162.352 287.202 162.155 287.091C161.958 286.976 161.723 286.919 161.451 286.919C161.201 286.919 160.982 286.962 160.796 287.048C160.613 287.134 160.458 287.25 160.329 287.397C160.2 287.54 160.094 287.705 160.012 287.891C159.933 288.074 159.874 288.264 159.834 288.46V289.852C159.906 290.102 160.006 290.339 160.135 290.561C160.264 290.779 160.436 290.956 160.651 291.092C160.866 291.225 161.136 291.291 161.462 291.291C161.73 291.291 161.961 291.236 162.155 291.125C162.352 291.01 162.513 290.854 162.638 290.657C162.767 290.46 162.862 290.235 162.923 289.98C162.984 289.723 163.014 289.449 163.014 289.159ZM167.22 286.188V292H166.221V286.188H167.22ZM169.169 286.188V286.994H164.309V286.188H169.169ZM171.221 290.426L173.901 286.188H174.9V292H173.901V287.762L171.221 292H170.233V286.188H171.221V290.426ZM177.489 287.306V294.234H176.49V286.188H177.403L177.489 287.306ZM181.405 289.046V289.159C181.405 289.581 181.355 289.973 181.254 290.335C181.154 290.693 181.007 291.005 180.814 291.27C180.624 291.535 180.39 291.74 180.11 291.887C179.831 292.034 179.511 292.107 179.149 292.107C178.78 292.107 178.454 292.047 178.171 291.925C177.889 291.803 177.649 291.626 177.452 291.393C177.255 291.16 177.097 290.881 176.979 290.555C176.864 290.229 176.786 289.862 176.743 289.454V288.853C176.786 288.423 176.866 288.038 176.984 287.698C177.103 287.358 177.258 287.068 177.452 286.828C177.649 286.584 177.887 286.4 178.166 286.274C178.445 286.146 178.768 286.081 179.133 286.081C179.498 286.081 179.822 286.153 180.105 286.296C180.388 286.436 180.626 286.636 180.819 286.897C181.013 287.159 181.158 287.472 181.254 287.837C181.355 288.199 181.405 288.602 181.405 289.046ZM180.406 289.159V289.046C180.406 288.756 180.375 288.484 180.314 288.229C180.254 287.972 180.159 287.746 180.03 287.553C179.904 287.356 179.743 287.202 179.546 287.091C179.349 286.976 179.115 286.919 178.843 286.919C178.592 286.919 178.374 286.962 178.188 287.048C178.005 287.134 177.849 287.25 177.72 287.397C177.591 287.54 177.486 287.705 177.403 287.891C177.325 288.074 177.265 288.264 177.226 288.46V289.852C177.298 290.102 177.398 290.339 177.527 290.561C177.656 290.779 177.828 290.956 178.042 291.092C178.257 291.225 178.528 291.291 178.854 291.291C179.122 291.291 179.353 291.236 179.546 291.125C179.743 291.01 179.904 290.854 180.03 290.657C180.159 290.46 180.254 290.235 180.314 289.98C180.375 289.723 180.406 289.449 180.406 289.159ZM186.099 291.006V288.015C186.099 287.785 186.053 287.587 185.959 287.418C185.87 287.247 185.734 287.114 185.551 287.021C185.369 286.928 185.143 286.881 184.875 286.881C184.624 286.881 184.404 286.924 184.214 287.01C184.028 287.096 183.881 287.209 183.773 287.349C183.67 287.488 183.618 287.639 183.618 287.8H182.624C182.624 287.592 182.678 287.386 182.785 287.182C182.893 286.978 183.047 286.794 183.247 286.629C183.451 286.461 183.695 286.328 183.978 286.231C184.264 286.131 184.583 286.081 184.934 286.081C185.356 286.081 185.729 286.153 186.051 286.296C186.377 286.439 186.631 286.656 186.813 286.946C187 287.232 187.093 287.592 187.093 288.025V290.732C187.093 290.926 187.109 291.132 187.141 291.35C187.177 291.569 187.229 291.757 187.297 291.914V292H186.26C186.21 291.885 186.171 291.733 186.142 291.543C186.113 291.35 186.099 291.171 186.099 291.006ZM186.271 288.477L186.282 289.175H185.277C184.994 289.175 184.742 289.198 184.52 289.245C184.298 289.288 184.112 289.354 183.961 289.443C183.811 289.533 183.696 289.646 183.618 289.782C183.539 289.914 183.5 290.07 183.5 290.249C183.5 290.432 183.541 290.598 183.623 290.749C183.705 290.899 183.829 291.019 183.994 291.108C184.162 291.194 184.368 291.237 184.611 291.237C184.916 291.237 185.184 291.173 185.417 291.044C185.65 290.915 185.834 290.757 185.97 290.571C186.11 290.385 186.185 290.204 186.196 290.029L186.62 290.507C186.595 290.657 186.527 290.824 186.416 291.006C186.305 291.189 186.156 291.364 185.97 291.533C185.788 291.697 185.569 291.835 185.315 291.946C185.064 292.054 184.781 292.107 184.466 292.107C184.072 292.107 183.727 292.03 183.43 291.876C183.136 291.722 182.907 291.517 182.742 291.259C182.581 290.997 182.5 290.706 182.5 290.383C182.5 290.072 182.561 289.798 182.683 289.562C182.805 289.322 182.98 289.123 183.209 288.965C183.439 288.804 183.714 288.682 184.037 288.6C184.359 288.518 184.719 288.477 185.116 288.477H186.271Z" fill="#94A3B8"/>
<rect x="139" y="298" width="162" height="34" rx="7" fill="#F1F5F9"/>
</g>
<path fill-rule="evenodd" clip-rule="evenodd" d="M76.2232 44.0142C75.0158 44.118 74.6461 44.1566 74.2375 44.2215C70.9125 44.7491 68.6421 46.0326 68.1082 47.6864C68.0171 47.9686 68 48.1081 68 48.5689V49.1162L68.2482 49.3534C68.5825 49.6728 69.5828 50.2501 70.2447 50.5055C71.9753 51.1734 74.0212 51.5479 76.4282 51.6374C79.6299 51.7566 82.5285 51.3622 84.7486 50.5055C85.4129 50.2491 86.4111 49.6725 86.7484 49.3502L87 49.1097L86.9858 48.4875C86.972 47.8824 86.967 47.8541 86.8037 47.4647C86.0947 45.7735 83.5219 44.5228 79.9033 44.1101C79.2512 44.0357 76.7355 43.9702 76.2232 44.0142ZM68 52.8363V54.9648L68.1187 55.0965C68.9781 56.0503 71.2621 56.9118 73.957 57.2986C77.7188 57.8386 81.9773 57.4662 84.8022 56.3502C85.7291 55.9841 86.489 55.5244 86.8745 55.0965L86.9932 54.9648V52.8363V50.7078L86.8529 50.8194C86.2543 51.2955 84.8959 51.9087 83.7268 52.2304C81.7878 52.7641 79.8787 52.9999 77.4966 52.9999C75.1145 52.9999 73.2054 52.7641 71.2664 52.2304C70.0973 51.9087 68.739 51.2955 68.1403 50.8194L68 50.7078V52.8363ZM68 58.1182C68 59.9116 68.0041 60.0085 68.0927 60.2927C68.7443 62.3839 72.2747 63.8605 76.9354 63.9912C81.9673 64.1322 86.1928 62.5639 86.9005 60.2927C86.9891 60.0085 86.9932 59.9116 86.9932 58.1152V56.2352L86.8745 56.328C86.1659 56.8823 85.1387 57.3739 83.9338 57.7353C82.0158 58.3107 80.07 58.5599 77.4966 58.5599C73.3759 58.5599 70.1334 57.7992 68.1835 56.3751L68 56.2412V58.1182Z" fill="#4D5FFF"/>
<path d="M59.9972 74.3C59.9972 75.08 59.7772 76.1 59.3372 77.4C58.9972 78.38 58.4972 79.62 57.8372 81.08C57.4572 81.9 56.9372 83 56.2572 84.4C55.5372 83.5 54.5572 82.66 53.6972 82.34C53.9572 81.82 54.4572 80.9 55.1972 79.56L56.9172 76.46C57.4572 75.44 57.7172 74.82 57.7172 74.6C57.7172 74.12 57.5572 73.88 57.2372 73.88C56.9572 73.88 56.6972 74.04 56.4372 74.36C56.3372 74.5 56.1172 74.84 55.7972 75.38C55.2372 76.36 54.5772 77.56 53.8172 79C53.1972 80.18 52.7172 81.08 52.3772 81.68C51.3972 81.68 50.5372 81.84 49.7972 82.14C48.8772 82.52 48.4172 83.06 48.4172 83.78C48.4172 84.42 48.7972 84.94 49.2572 84.86C49.5572 84.8 49.7172 84.62 49.7772 84.32C49.8372 84.02 50.0372 83.74 50.3572 83.52C50.6772 83.3 50.9972 83.18 51.2972 83.18C51.3972 83.38 51.4572 83.52 51.5172 83.6C51.6372 83.8 51.7972 83.9 52.0172 83.9C52.4372 83.9 52.6172 83.86 52.9172 83.6C53.7772 83.92 54.1372 84.22 54.7572 85L55.3172 85.68C55.6172 86.02 55.9972 86.18 56.4372 86.18C56.8172 86.18 57.1372 85.88 57.4372 85.3C57.5972 85 57.8172 84.48 58.1172 83.74C59.0372 81.9 59.8172 80.12 60.4372 78.42C61.1372 76.5 61.4972 75.08 61.4972 74.18C61.4972 72.84 61.2572 71.82 60.7572 71.12C60.0972 70.2 58.9772 69.74 57.3572 69.74C56.1372 69.74 55.0372 70.02 54.0972 70.56C53.0772 71.16 52.5572 71.92 52.5572 72.86C52.5572 74.14 52.9172 75.32 53.5772 75.32C54.0972 75.32 54.3572 75.04 54.3572 74.48C54.3572 74.1 53.9972 73.58 53.9972 73.04C53.9972 72.56 54.3372 72.1 54.9972 71.66C55.6772 71.22 56.4372 71 57.2972 71C58.2172 71 58.9172 71.32 59.3772 71.94C59.7972 72.5 59.9972 73.28 59.9972 74.3ZM70.1309 82C70.1309 81.52 69.9909 81.44 69.6109 81.44C69.4709 81.44 69.0709 81.82 68.4109 82.58C67.7509 83.34 67.2709 83.72 66.9709 83.72C66.4709 83.72 66.1909 83.2 66.1909 82.66C66.6909 82 67.1909 81.34 67.6909 80.64C68.2109 79.94 68.4709 79.36 68.4709 78.94C68.4709 78.56 68.2909 78.2 67.7309 78.2C67.6709 78.2 67.5109 78.22 67.2509 78.24C66.7509 77.94 66.3309 77.86 65.7709 77.86C64.8909 77.86 63.7509 78.56 62.3509 79.98C60.9509 81.4 60.2509 82.56 60.2509 83.5C60.2509 84 60.4109 84.38 60.7109 84.68C60.9709 84.92 61.3109 85.04 61.6909 85.04C62.4109 85.04 63.1309 84.84 63.8309 84.42C64.0109 84.32 64.3709 84.06 64.9309 83.68C65.0709 84.08 65.2309 84.38 65.4109 84.58C65.6909 84.86 66.0909 85 66.6309 85C67.4709 85 68.2909 84.56 69.0909 83.68C69.7509 82.94 70.0909 82.38 70.1309 82ZM66.5509 79.06C66.2109 79.48 65.8709 79.92 65.5709 80.42C65.1909 81 64.8709 81.62 64.6109 82.24C64.0309 82.7 63.6109 83.02 63.3509 83.16C62.7709 83.5 62.2509 83.62 61.7309 83.64C61.6309 83.64 61.5709 83.58 61.5709 83.44C61.5709 82.82 62.1709 81.9 63.3709 80.66C64.5309 79.48 65.3109 78.88 65.9509 78.88C66.2109 78.88 66.4709 78.92 66.5509 79.06ZM80.0698 82.44C80.0698 82.26 79.8898 81.96 79.5898 81.96C79.3498 81.96 79.1098 82.26 78.3298 82.7C77.4698 83.2 76.8098 83.48 76.5098 83.48C76.0898 83.48 76.0298 83.46 76.0298 83.12C76.0298 82.94 76.4898 81.98 77.0098 80.78C77.3898 79.92 77.9298 79.04 77.9098 78.42C77.9098 78.16 77.6298 77.9 77.3298 77.9C76.6298 77.9 76.2098 78.92 75.9898 79.5C74.6498 80.36 72.6098 81.04 71.8698 81.4C72.2098 80.52 72.3898 79.8 72.3898 79.24C72.3898 78.38 72.3298 78.2 71.6898 78.2C71.3698 78.2 71.0698 78.72 70.7898 79.74L70.3698 81.2C70.3098 81.38 70.0898 81.9 69.7298 82.74C69.3698 83.58 69.1898 84.14 69.1898 84.44C69.1898 84.98 69.2698 85.1 69.7498 85.1C70.0498 85.1 70.6098 84.38 71.1698 83.44C71.7098 82.92 72.6098 82.6 73.0298 82.4C73.9298 81.96 74.9298 81.64 75.2698 81.38L74.9698 81.96C74.6698 82.54 74.5498 83.02 74.5498 83.36C74.5498 84.38 74.9898 84.86 76.1698 84.86C76.7498 84.86 77.4298 84.56 78.5098 83.9C79.5898 83.24 80.0698 82.9 80.0698 82.44ZM90.0691 82.44C90.0691 82.26 89.8891 81.96 89.5891 81.96C89.3491 81.96 89.1091 82.26 88.3291 82.7C87.4691 83.2 86.8091 83.48 86.5091 83.48C86.0891 83.48 86.0291 83.46 86.0291 83.12C86.0291 82.94 86.4891 81.98 87.0091 80.78C87.3891 79.92 87.9291 79.04 87.9091 78.42C87.9091 78.16 87.6291 77.9 87.3291 77.9C86.6291 77.9 86.2091 78.92 85.9891 79.5C84.6491 80.36 82.6091 81.04 81.8691 81.4C82.2091 80.52 82.3891 79.8 82.3891 79.24C82.3891 78.38 82.3291 78.2 81.6891 78.2C81.3691 78.2 81.0691 78.72 80.7891 79.74L80.3691 81.2C80.3091 81.38 80.0891 81.9 79.7291 82.74C79.3691 83.58 79.1891 84.14 79.1891 84.44C79.1891 84.98 79.2691 85.1 79.7491 85.1C80.0491 85.1 80.6091 84.38 81.1691 83.44C81.7091 82.92 82.6091 82.6 83.0291 82.4C83.9291 81.96 84.9291 81.64 85.2691 81.38L84.9691 81.96C84.6691 82.54 84.5491 83.02 84.5491 83.36C84.5491 84.38 84.9891 84.86 86.1691 84.86C86.7491 84.86 87.4291 84.56 88.5091 83.9C89.5891 83.24 90.0691 82.9 90.0691 82.44ZM100.148 78.32C100.148 78.12 99.8683 77.88 99.5083 77.88C99.0283 77.88 98.4283 78.98 97.9083 79.9L97.4083 80.8L96.5483 82.22C96.1483 82.9 95.3283 84.28 95.3283 84.78C95.3283 85.02 95.7483 85.16 95.9883 85.2C96.6283 85.32 97.4283 83.82 98.1683 82.52L98.7083 81.58C99.1283 80.86 100.168 78.92 100.148 78.32ZM95.2483 82.3C95.2483 81.2 94.2883 80.34 93.3483 80.28C93.1683 80.26 92.8883 80.26 92.7283 80.3C92.8683 80.02 93.2883 79.4 93.4883 79.04C93.7883 78.48 94.0483 78.18 94.0683 77.82C94.0883 77.42 93.7083 77.36 93.5483 77.36C93.0083 77.36 92.5883 77.76 92.3283 78.24L91.0683 80.56L90.4283 81.76C90.0083 82.56 89.3683 83.62 89.3683 84.24C89.3683 84.84 89.7683 85.44 90.8083 85.44C92.6883 85.44 95.2483 84.42 95.2483 82.3ZM93.8283 82.3C93.8283 83.36 92.3083 84.16 91.2683 84.16C91.1483 84.16 90.9283 84.16 90.9283 84.02C90.9283 83.82 91.8683 81.98 92.2483 81.54C92.4083 81.4 92.6683 81.34 92.9483 81.38C93.4483 81.46 93.8283 81.8 93.8283 82.3ZM105.408 83.12C104.628 83.46 104.008 83.62 103.508 83.62C102.728 83.62 102.228 83.3 101.888 82.6C102.328 82.5 102.828 82.34 103.368 82.14C104.968 81.56 106.148 80.82 106.788 80C107.168 79.5 107.368 78.96 107.368 78.38C107.368 78.08 107.268 77.82 107.088 77.58C106.868 77.28 106.528 77.14 106.108 77.14C105.228 77.14 104.048 77.68 102.568 78.78C100.948 79.98 100.128 81.14 100.128 82.26C100.128 83.12 100.448 83.82 101.108 84.32C101.688 84.76 102.368 84.98 103.168 84.98C103.948 84.98 104.988 84.66 106.308 84C107.628 83.34 108.288 82.82 108.288 82.48C108.288 82.24 108.008 82.08 107.768 82.08L105.408 83.12ZM105.508 78.64C105.768 78.64 105.888 78.8 105.888 79.12C105.888 79.38 105.388 79.88 104.768 80.26C104.288 80.56 103.908 80.78 103.628 80.9C103.108 81.12 102.588 81.24 102.068 81.24C102.408 80.64 102.948 80.06 103.728 79.5C104.508 78.92 105.108 78.64 105.508 78.64Z" fill="#4D5FFF"/>
</g>
<defs>
<filter id="filter0_d_80_830" x="-31" y="3" width="402" height="528" filterUnits="userSpaceOnUse" color-interpolation-filters="sRGB">
<feFlood flood-opacity="0" result="BackgroundImageFix"/>
<feColorMatrix in="SourceAlpha" type="matrix" values="0 0 0 0 0 0 0 0 0 0 0 0 0 0 0 0 0 0 127 0" result="hardAlpha"/>
<feOffset dx="-50" dy="75"/>
<feGaussianBlur stdDeviation="52"/>
<feColorMatrix type="matrix" values="0 0 0 0 0.111806 0 0 0 0 0.181627 0 0 0 0 0.383333 0 0 0 0.15 0"/>
<feBlend mode="normal" in2="BackgroundImageFix" result="effect1_dropShadow_80_830"/>
<feBlend mode="normal" in="SourceGraphic" in2="effect1_dropShadow_80_830" result="shape"/>
</filter>
<clipPath id="clip0_80_830">
<path d="M0 6.99999C0 3.134 3.13401 0 7 0H340C343.866 0 347 3.13401 347 7V300H0V6.99999Z" fill="white"/>
</clipPath>
</defs>
</svg>
