<svg width="20" height="25" viewBox="0 0 20 25" fill="none" xmlns="http://www.w3.org/2000/svg">
<path fill-rule="evenodd" clip-rule="evenodd" d="M9.08589 0.0368719C4.72071 0.466616 1.1 3.78384 0.206686 8.17188C-0.693139 12.592 1.35346 17.3321 6.18339 22.0142C7.13752 22.9392 8.49846 24.0896 9.3509 24.6917C9.95563 25.1189 10.0639 25.1124 10.759 24.6077C12.9436 23.0217 15.3456 20.6416 16.89 18.5328C19.8151 14.5387 20.6789 10.673 19.4726 6.97522C18.4861 3.95125 16.1225 1.54537 13.1298 0.519011C11.9176 0.103283 10.3318 -0.0857834 9.08589 0.0368719ZM11.0399 5.90159C12.5845 6.26799 13.8781 7.60234 14.2619 9.22507C14.3931 9.77969 14.3894 10.7727 14.2542 11.3142C13.8402 12.9726 12.6053 14.2362 11.0106 14.633C10.4927 14.7619 9.50765 14.7619 8.98977 14.633C7.39602 14.2364 6.12516 12.9328 5.73852 11.298C5.61291 10.7668 5.61291 9.75629 5.73852 9.22507C6.06558 7.84217 7.04774 6.66025 8.31889 6.11977C8.68635 5.96354 8.88175 5.91211 9.5897 5.78525C9.82791 5.74254 10.6462 5.80823 11.0399 5.90159Z" fill="#94A3B8"/>
</svg>
