<svg width="48" height="40" viewBox="0 0 48 40" fill="none" xmlns="http://www.w3.org/2000/svg">
<path d="M10.6909 39.782C7.41818 39.782 4.8 38.5831 2.83636 36.1853C0.945455 33.7148 0 30.8084 0 27.4659C0 24.7048 0.509091 22.1253 1.52727 19.7275C2.54545 17.3297 3.81818 15.1499 5.34545 13.188C6.94545 11.2262 8.61818 9.51862 10.3636 8.06539C12.1818 6.53951 13.8545 5.26794 15.3818 4.25068C16.9091 3.16076 18.1455 2.36149 19.0909 1.85286C20.1091 1.34423 20.5818 1.08992 20.5091 1.08992L23.0182 4.46866C22.3636 4.75931 21.4909 5.3406 20.4 6.21253C19.3091 7.01181 18.2182 7.99273 17.1273 9.15531C16.1091 10.3179 15.2 11.5895 14.4 12.97C13.6 14.2779 13.2 15.5495 13.2 16.7847C13.2 17.5114 13.6364 18.238 14.5091 18.9646C15.3818 19.6185 16.3273 20.4178 17.3455 21.3624C18.3636 22.2343 19.3091 23.3242 20.1818 24.6322C21.0545 25.8674 21.4909 27.3933 21.4909 29.2098C21.4909 30.8084 21.1636 32.2616 20.5091 33.5695C19.9273 34.8774 19.1273 36.0036 18.1091 36.9482C17.1636 37.8202 16.0364 38.5104 14.7273 39.0191C13.4182 39.5277 12.0727 39.782 10.6909 39.782ZM37.5273 40C35.8545 40 34.3273 39.6367 32.9455 38.9101C31.5636 38.1835 30.3636 37.2025 29.3455 35.9673C28.3273 34.7321 27.5273 33.3152 26.9455 31.7166C26.4364 30.0454 26.1818 28.2652 26.1818 26.376C26.1818 22.5976 26.9818 19.1099 28.5818 15.9128C30.2545 12.6431 32.0727 9.84559 34.0364 7.52044C36.3636 4.75931 39.0182 2.2525 42 0L45.1636 2.94278C44.5091 3.37875 43.7091 4.06903 42.7636 5.01362C41.8909 5.95822 41.0545 7.08447 40.2545 8.39237C39.5273 9.62761 38.8727 10.9355 38.2909 12.3161C37.7818 13.6966 37.5273 15.0409 37.5273 16.3488C37.5273 17.2207 38.0727 17.9473 39.1636 18.5286C40.2545 19.1099 41.4545 19.8365 42.7636 20.7084C44.0727 21.5804 45.2727 22.7066 46.3636 24.0872C47.4545 25.3951 48 27.248 48 29.6458C48 31.099 47.7091 32.4432 47.1273 33.6785C46.5455 34.9137 45.7455 36.0036 44.7273 36.9482C43.7818 37.8928 42.6545 38.6558 41.3455 39.2371C40.1091 39.7457 38.8364 40 37.5273 40Z" fill="#F0F4F9"/>
</svg>
